<svg id="amplitudo_logo_new" data-name="amplitudo logo new" xmlns="http://www.w3.org/2000/svg" width="577.186" height="100.492" viewBox="0 0 577.186 100.492">
  <path id="Path_1092" data-name="Path 1092" d="M334.512,66.043l-1.718,1.227a15.642,15.642,0,0,1-8.221,2.454c-2.331,0-4.049-.614-5.276-2.086a8.958,8.958,0,0,1-1.963-6.135V38.8h16.933V27.883H317.334V12.3H304.573V27.883H283.1V80.522h12.761V38.8h8.589V62.117c0,6.38,1.718,11.289,5.276,14.724,3.436,3.313,8.221,5.031,14.111,5.031,4.049,0,9.2-1.6,13.62-4.172l1.35-.736A24.639,24.639,0,0,1,334.512,66.043Z" transform="translate(64.267 2.792)" fill="#fff"/>
  <path id="Path_1093" data-name="Path 1093" d="M7.485,46.6C3.313,46.6,0,56.784,0,72.735H14.97c0-15.951-3.313-26.135-7.485-26.135" transform="translate(0 10.579)" fill="#00b9ad"/>
  <path id="Path_1094" data-name="Path 1094" d="M58.9,0C48.344,0,40,35.338,40,83.314H77.915C77.792,35.338,69.2,0,58.9,0" transform="translate(9.08)" fill="#00b9ad"/>
  <path id="Path_1095" data-name="Path 1095" d="M28.3,23.9c-6.626,0-11.9,22.209-11.9,53.866H40.2c0-31.657-5.4-53.866-11.9-53.866" transform="translate(3.723 5.426)" fill="#00b9ad"/>
  <path id="Path_1096" data-name="Path 1096" d="M133.813,29.567c-4.54-3.8-10.307-5.767-17.178-5.767A25.456,25.456,0,0,0,98.23,31.653c-5.153,5.153-7.73,11.9-7.73,19.878q0,12.147,7.73,19.878a25.253,25.253,0,0,0,18.405,7.853c6.871,0,12.638-1.963,17.178-5.767v4.295h12.761V25.272H133.813v4.295Zm-4.663,10.307a15.714,15.714,0,0,1,4.663,11.657,15.261,15.261,0,0,1-4.663,11.657,15.551,15.551,0,0,1-21.841.123c-2.945-2.945-4.295-6.871-4.295-11.779s1.472-8.834,4.295-11.779a14.791,14.791,0,0,1,11.043-4.417,15.664,15.664,0,0,1,10.8,4.54" transform="translate(20.544 5.403)" fill="#fff"/>
  <path id="Path_1097" data-name="Path 1097" d="M206.314,23.8c-7.853,0-14.111,2.822-18.651,8.344a16.965,16.965,0,0,0-6.38-5.767,21.2,21.2,0,0,0-10.43-2.577c-6.135,0-11.166,1.841-15.092,5.4V25.272H143V77.911h12.761V51.776c0-5.276,1.1-9.325,3.313-12.025s5.153-3.926,8.957-3.926a9.8,9.8,0,0,1,7.362,2.945,10.841,10.841,0,0,1,2.945,7.976V77.788H191.1V51.776c0-5.276,1.1-9.325,3.436-12.025,2.209-2.7,5.153-3.926,9.08-3.926a9.8,9.8,0,0,1,7.362,2.945,10.841,10.841,0,0,1,2.945,7.976V77.788h12.638V44.659c0-6.135-1.963-11.166-5.89-14.97a19.535,19.535,0,0,0-14.356-5.89" transform="translate(32.463 5.403)" fill="#fff"/>
  <path id="Path_1098" data-name="Path 1098" d="M246.039,23.8c-6.871,0-12.638,1.963-17.178,5.767V25.272H216.1V95.089h12.761v-21.6c4.54,3.8,10.307,5.767,17.178,5.767a24.788,24.788,0,0,0,18.405-7.853c5.153-5.153,7.73-11.9,7.73-19.878s-2.577-14.724-7.73-19.878A25.456,25.456,0,0,0,246.039,23.8m13.62,27.73c0,4.908-1.472,8.834-4.295,11.779a15.551,15.551,0,0,1-21.841-.123,15.714,15.714,0,0,1-4.663-11.657,15.261,15.261,0,0,1,4.663-11.657,15.551,15.551,0,0,1,21.841-.123,16.551,16.551,0,0,1,4.295,11.779" transform="translate(49.057 5.403)" fill="#fff"/>
  <rect id="Rectangle_10609" data-name="Rectangle 10609" width="12.761" height="74.357" transform="translate(325.403 8.957)" fill="#fff"/>
  <path id="Path_1099" data-name="Path 1099" d="M367.047,49.418q0,8.834-3.681,13.252A12.345,12.345,0,0,1,353.3,67.086a10.06,10.06,0,0,1-7.976-3.436,13.975,13.975,0,0,1-3.068-9.325V25H329.5V56.534c0,6.626,1.963,12.147,5.89,16.2q5.89,6.258,15.46,6.258c6.5,0,12.025-1.963,16.2-5.89v4.54h12.761V25H367.047Z" transform="translate(74.8 5.675)" fill="#fff"/>
  <path id="Path_1100" data-name="Path 1100" d="M418.513,33.313c-4.54-3.8-10.307-5.767-17.178-5.767A25.456,25.456,0,0,0,382.93,35.4c-5.153,5.153-7.73,11.9-7.73,19.878S377.777,70,382.93,75.154a25.253,25.253,0,0,0,18.405,7.853,26.41,26.41,0,0,0,17.178-5.767v4.295H431.4V7.3H418.513ZM413.851,43.62a15.714,15.714,0,0,1,4.663,11.657c0,4.908-1.472,8.712-4.663,11.657a15.226,15.226,0,0,1-10.8,4.417,14.705,14.705,0,0,1-10.92-4.417c-2.945-2.945-4.295-6.871-4.295-11.779A16.248,16.248,0,0,1,392.133,43.5a14.705,14.705,0,0,1,10.92-4.417,15.894,15.894,0,0,1,10.8,4.54" transform="translate(85.174 1.657)" fill="#fff"/>
  <path id="Path_1101" data-name="Path 1101" d="M472.6,31.73a29.755,29.755,0,0,0-39.878-.123A26.277,26.277,0,0,0,424.5,51.362c0,7.976,2.822,14.724,8.221,19.755a29.58,29.58,0,0,0,39.878,0,26.277,26.277,0,0,0,8.221-19.755C480.7,43.509,478,36.884,472.6,31.73M468.3,51.485a15.722,15.722,0,0,1-15.583,16.2,15,15,0,0,1-11.043-4.54,15.622,15.622,0,0,1-4.54-11.657,15.622,15.622,0,0,1,4.54-11.657,15.552,15.552,0,0,1,21.963,0A15.714,15.714,0,0,1,468.3,51.485" transform="translate(96.366 5.448)" fill="#fff"/>
  <path id="Path_1102" data-name="Path 1102" d="M289.83,22.638a8.214,8.214,0,0,0,5.644-2.086,7.491,7.491,0,0,0,2.209-5.522,7.9,7.9,0,0,0-2.209-5.522A7.491,7.491,0,0,0,289.953,7.3a7.774,7.774,0,0,0-5.644,2.209A7.491,7.491,0,0,0,282.1,15.03a7.149,7.149,0,0,0,2.331,5.522,7.019,7.019,0,0,0,5.4,2.086" transform="translate(64.04 1.657)" fill="#fff"/>
</svg>
