<svg id="Digital_Marketing" data-name="Digital Marketing" xmlns="http://www.w3.org/2000/svg" width="513.101" height="253.927" viewBox="0 0 513.101 253.927">
  <g id="Group_671" data-name="Group 671" transform="translate(0 40.193)">
    <g id="Group_669" data-name="Group 669">
      <path id="Path_176" data-name="Path 176" d="M920.541,336.239h413.226a21.774,21.774,0,0,1,21.774,21.774h0a21.775,21.775,0,0,1-21.774,21.774h-86.345a16.4,16.4,0,0,0-16.4,16.4h0a16.4,16.4,0,0,0,16.483,16.4l55.273-.266a16.768,16.768,0,0,1,16.851,16.768h0a16.77,16.77,0,0,1-16.463,16.766l-65.615,1.2a18.805,18.805,0,0,0-18.458,18.8h0a18.8,18.8,0,0,0,18.8,18.8h50.365a14.342,14.342,0,0,1,14.343,14.34h0a14.342,14.342,0,0,1-14.343,14.34h-18.471a24.241,24.241,0,0,0-24.24,24.239V548.11H948.091v-9.258a27.261,27.261,0,0,0-26.916-27.259l-45.551-.577a22.09,22.09,0,0,1-21.811-22.09h0a22.091,22.091,0,0,1,22.092-22.092h44.057a39.568,39.568,0,0,1,39.569-39.569h15.1a21.077,21.077,0,0,0,21.075-21.075h0a21.077,21.077,0,0,0-21.075-21.078h-54.09A24.437,24.437,0,0,1,896.1,360.675h0A24.436,24.436,0,0,1,920.541,336.239Z" transform="translate(-853.813 -336.239)" fill="#f5f5f5"/>
    </g>
    <g id="Group_670" data-name="Group 670" transform="translate(456.814 122.332)">
      <path id="Path_177" data-name="Path 177" d="M1080.867,411.534h-30.211a13.037,13.037,0,0,1-13.038-13.038h0a13.037,13.037,0,0,1,13.038-13.035h30.211a13.037,13.037,0,0,1,13.038,13.035h0A13.037,13.037,0,0,1,1080.867,411.534Z" transform="translate(-1037.618 -385.461)" fill="#f7f7f7"/>
    </g>
  </g>
  <g id="Group_680" data-name="Group 680" transform="translate(76.292 111.717)">
    <g id="Group_678" data-name="Group 678">
      <g id="Group_672" data-name="Group 672" transform="translate(1.864 1.865)">
        <rect id="Rectangle_9884" data-name="Rectangle 9884" width="110.52" height="138.482" rx="1.987" fill="#fff"/>
      </g>
      <g id="Group_673" data-name="Group 673">
        <path id="Path_178" data-name="Path 178" d="M888.238,505.036H884.51V374.666a9.659,9.659,0,0,1,9.648-9.648H956.8v3.728H894.158a5.927,5.927,0,0,0-5.92,5.92Z" transform="translate(-884.51 -365.018)" fill="#283e51"/>
      </g>
      <g id="Group_674" data-name="Group 674" transform="translate(94.38)">
        <path id="Path_179" data-name="Path 179" d="M942.35,505.036h-3.728V374.666a5.926,5.926,0,0,0-5.918-5.92h-10.22v-3.728H932.7a9.659,9.659,0,0,1,9.646,9.648Z" transform="translate(-922.485 -365.018)" fill="#283e51"/>
      </g>
      <g id="Group_675" data-name="Group 675" transform="translate(44.245 10.435)">
        <rect id="Rectangle_9885" data-name="Rectangle 9885" width="25.756" height="3.728" fill="#283e51"/>
      </g>
      <g id="Group_676" data-name="Group 676" transform="translate(51.081 122.981)">
        <path id="Path_180" data-name="Path 180" d="M911.1,426.582a6.041,6.041,0,1,1,6.042-6.042A6.05,6.05,0,0,1,911.1,426.582Zm0-8.353a2.313,2.313,0,1,0,2.314,2.311A2.317,2.317,0,0,0,911.1,418.229Z" transform="translate(-905.063 -414.501)" fill="#283e51"/>
      </g>
      <g id="Group_677" data-name="Group 677" transform="translate(10.565 21.849)">
        <rect id="Rectangle_9886" data-name="Rectangle 9886" width="93.117" height="98.096" fill="#f5f5f5"/>
      </g>
    </g>
    <g id="Group_679" data-name="Group 679" transform="translate(45.472 58.066)">
      <path id="Path_181" data-name="Path 181" d="M927.52,402.65l-24.713-14.268v28.537L927.52,402.65l-24.713-14.268v28.537Z" transform="translate(-902.806 -388.382)" fill="#fff"/>
    </g>
  </g>
  <g id="Group_681" data-name="Group 681" transform="translate(148.401 111.717)" opacity="0.3">
    <path id="Path_182" data-name="Path 182" d="M955.66,374.666a9.659,9.659,0,0,0-9.646-9.648h-10.22v1.864H913.708v-1.864h-.184V470.579a6.841,6.841,0,0,0,6.835,6.832h35.3Z" transform="translate(-913.524 -365.018)" fill="#283e51"/>
  </g>
  <g id="Group_705" data-name="Group 705" transform="translate(153.371 66.939)">
    <g id="Group_682" data-name="Group 682" transform="translate(1.866 1.864)">
      <path id="Rectangle_9887" data-name="Rectangle 9887" d="M1.973,0H209.489a1.973,1.973,0,0,1,1.973,1.973V125.779a0,0,0,0,1,0,0H0a0,0,0,0,1,0,0V1.973A1.973,1.973,0,0,1,1.973,0Z" fill="#17ac9d"/>
    </g>
    <g id="Group_683" data-name="Group 683" transform="translate(0 0.001)">
      <path id="Path_183" data-name="Path 183" d="M1130.715,476.508H915.524V353.768a6.776,6.776,0,0,1,6.77-6.767H943.67v3.728H922.294a3.045,3.045,0,0,0-3.042,3.04V472.78h207.735V353.768a3.044,3.044,0,0,0-3.04-3.04H962.089V347h161.859a6.773,6.773,0,0,1,6.768,6.767Z" transform="translate(-915.524 -347.001)" fill="#283e51"/>
    </g>
    <g id="Group_684" data-name="Group 684" transform="translate(31.589)">
      <rect id="Rectangle_9888" data-name="Rectangle 9888" width="11.274" height="3.728" fill="#283e51"/>
    </g>
    <g id="Group_685" data-name="Group 685" transform="translate(13.341 14.163)">
      <rect id="Rectangle_9889" data-name="Rectangle 9889" width="188.749" height="99.345" fill="#fff"/>
    </g>
    <g id="Group_686" data-name="Group 686" transform="translate(75.743 146.705)">
      <rect id="Rectangle_9890" data-name="Rectangle 9890" width="63.709" height="37.714" fill="#f5f5f5"/>
    </g>
    <g id="Group_687" data-name="Group 687" transform="translate(75.743 146.705)">
      <rect id="Rectangle_9891" data-name="Rectangle 9891" width="63.709" height="18.858" fill="#f5f5f5"/>
    </g>
    <g id="Group_688" data-name="Group 688" transform="translate(73.879 144.842)">
      <path id="Path_184" data-name="Path 184" d="M1012.689,446.723H945.25V405.28h67.439Zm-63.711-3.728h59.983V409.008H948.978Z" transform="translate(-945.25 -405.28)" fill="#283e51"/>
    </g>
    <g id="Group_689" data-name="Group 689" transform="translate(1.866 123.024)">
      <path id="Rectangle_9892" data-name="Rectangle 9892" d="M0,0H211.463a0,0,0,0,1,0,0V26.557a2,2,0,0,1-2,2H2a2,2,0,0,1-2-2V0A0,0,0,0,1,0,0Z" fill="#fff"/>
    </g>
    <g id="Group_690" data-name="Group 690" transform="translate(0 121.16)">
      <path id="Path_185" data-name="Path 185" d="M1123.883,428.035H922.359a6.841,6.841,0,0,1-6.835-6.832V395.751h215.191V421.2A6.839,6.839,0,0,1,1123.883,428.035ZM919.252,399.479V421.2a3.111,3.111,0,0,0,3.107,3.1h201.524a3.108,3.108,0,0,0,3.1-3.1V399.479Z" transform="translate(-915.524 -395.751)" fill="#283e51"/>
    </g>
    <g id="Group_691" data-name="Group 691" transform="translate(63.357 183.26)">
      <rect id="Rectangle_9893" data-name="Rectangle 9893" width="89.314" height="3.728" fill="#283e51"/>
    </g>
    <g id="Group_692" data-name="Group 692" transform="translate(20.406 21.918)">
      <rect id="Rectangle_9894" data-name="Rectangle 9894" width="99.463" height="59.392" fill="#17ac9d"/>
    </g>
    <g id="Group_693" data-name="Group 693" transform="translate(60.376 38.312)">
      <path id="Path_186" data-name="Path 186" d="M959.341,373.688l-19.524-11.272V384.96Z" transform="translate(-939.817 -362.416)" fill="#fff"/>
    </g>
    <g id="Group_694" data-name="Group 694" transform="translate(125.453 21.918)">
      <rect id="Rectangle_9895" data-name="Rectangle 9895" width="27.7" height="27.7" fill="#f5f5f5"/>
    </g>
    <g id="Group_695" data-name="Group 695" transform="translate(125.453 53.435)">
      <rect id="Rectangle_9896" data-name="Rectangle 9896" width="27.7" height="27.7" fill="#f5f5f5"/>
    </g>
    <g id="Group_696" data-name="Group 696" transform="translate(125.453 84.952)">
      <rect id="Rectangle_9897" data-name="Rectangle 9897" width="27.7" height="27.7" fill="#f5f5f5"/>
    </g>
    <g id="Group_697" data-name="Group 697" transform="translate(22.983 85.37)">
      <rect id="Rectangle_9898" data-name="Rectangle 9898" width="34.84" height="3.728" fill="#283e51"/>
    </g>
    <g id="Group_698" data-name="Group 698" transform="translate(158.921 26.647)">
      <rect id="Rectangle_9899" data-name="Rectangle 9899" width="34.838" height="3.728" fill="#283e51"/>
    </g>
    <g id="Group_699" data-name="Group 699" transform="translate(158.921 36.43)">
      <rect id="Rectangle_9900" data-name="Rectangle 9900" width="34.838" height="3.728" fill="#283e51"/>
    </g>
    <g id="Group_700" data-name="Group 700" transform="translate(158.921 57.077)">
      <rect id="Rectangle_9901" data-name="Rectangle 9901" width="34.838" height="3.728" fill="#283e51"/>
    </g>
    <g id="Group_701" data-name="Group 701" transform="translate(158.921 66.863)">
      <rect id="Rectangle_9902" data-name="Rectangle 9902" width="34.838" height="3.728" fill="#283e51"/>
    </g>
    <g id="Group_702" data-name="Group 702" transform="translate(158.921 90.039)">
      <rect id="Rectangle_9903" data-name="Rectangle 9903" width="34.838" height="3.728" fill="#283e51"/>
    </g>
    <g id="Group_703" data-name="Group 703" transform="translate(158.921 99.823)">
      <rect id="Rectangle_9904" data-name="Rectangle 9904" width="34.838" height="3.728" fill="#283e51"/>
    </g>
    <g id="Group_704" data-name="Group 704" transform="translate(22.983 96.939)">
      <rect id="Rectangle_9905" data-name="Rectangle 9905" width="82.042" height="3.728" fill="#283e51"/>
    </g>
  </g>
  <g id="Group_708" data-name="Group 708" transform="translate(126.952)">
    <g id="Group_706" data-name="Group 706" transform="translate(0 5.311)">
      <path id="Path_187" data-name="Path 187" d="M917.383,325.932H906.758a1.864,1.864,0,1,1,0-3.728h10.625a1.864,1.864,0,1,1,0,3.728Z" transform="translate(-904.894 -322.204)" fill="#283e51"/>
    </g>
    <g id="Group_707" data-name="Group 707" transform="translate(5.311)">
      <path id="Path_188" data-name="Path 188" d="M908.9,334.417a1.865,1.865,0,0,1-1.864-1.864V321.931a1.864,1.864,0,0,1,3.728,0v10.622A1.865,1.865,0,0,1,908.9,334.417Z" transform="translate(-907.031 -320.067)" fill="#283e51"/>
    </g>
  </g>
  <g id="Group_711" data-name="Group 711" transform="translate(67.745 93.711)">
    <g id="Group_709" data-name="Group 709" transform="translate(0 5.311)">
      <path id="Path_189" data-name="Path 189" d="M893.56,363.638H882.935a1.864,1.864,0,1,1,0-3.728H893.56a1.864,1.864,0,1,1,0,3.728Z" transform="translate(-881.071 -359.91)" fill="#283e51"/>
    </g>
    <g id="Group_710" data-name="Group 710" transform="translate(5.314)">
      <path id="Path_190" data-name="Path 190" d="M885.073,372.126a1.865,1.865,0,0,1-1.864-1.864V359.637a1.864,1.864,0,0,1,3.728,0v10.625A1.865,1.865,0,0,1,885.073,372.126Z" transform="translate(-883.209 -357.773)" fill="#283e51"/>
    </g>
  </g>
  <g id="Group_714" data-name="Group 714" transform="translate(476.441 72.818)">
    <g id="Group_712" data-name="Group 712">
      <path id="Path_191" data-name="Path 191" d="M1047.381,360.6a1.863,1.863,0,0,1-1.32-3.181l7.511-7.511a1.863,1.863,0,0,1,2.634,2.634l-7.508,7.513A1.862,1.862,0,0,1,1047.381,360.6Z" transform="translate(-1045.515 -349.366)" fill="#283e51"/>
    </g>
    <g id="Group_713" data-name="Group 713">
      <path id="Path_192" data-name="Path 192" d="M1054.889,360.6a1.856,1.856,0,0,1-1.317-.544l-7.511-7.513a1.864,1.864,0,0,1,2.637-2.634l7.508,7.511a1.863,1.863,0,0,1-1.317,3.181Z" transform="translate(-1045.515 -349.366)" fill="#283e51"/>
    </g>
  </g>
  <g id="Group_717" data-name="Group 717" transform="translate(49.346 27.426)">
    <g id="Group_715" data-name="Group 715">
      <path id="Path_193" data-name="Path 193" d="M875.532,342.343a1.865,1.865,0,0,1-1.317-3.184l7.511-7.511a1.865,1.865,0,0,1,2.637,2.637l-7.513,7.511A1.849,1.849,0,0,1,875.532,342.343Z" transform="translate(-873.668 -331.102)" fill="#283e51"/>
    </g>
    <g id="Group_716" data-name="Group 716">
      <path id="Path_194" data-name="Path 194" d="M883.042,342.343a1.853,1.853,0,0,1-1.317-.547l-7.511-7.511a1.864,1.864,0,0,1,2.634-2.637l7.513,7.511a1.865,1.865,0,0,1-1.32,3.184Z" transform="translate(-873.668 -331.102)" fill="#283e51"/>
    </g>
  </g>
  <g id="Group_718" data-name="Group 718" transform="translate(426.226 143.743)">
    <rect id="Rectangle_9906" data-name="Rectangle 9906" width="43.234" height="3.728" fill="#283e51"/>
  </g>
  <g id="Group_719" data-name="Group 719" transform="translate(473.187 143.743)">
    <rect id="Rectangle_9907" data-name="Rectangle 9907" width="8.873" height="3.728" fill="#283e51"/>
  </g>
  <g id="Group_720" data-name="Group 720" transform="translate(200.654 22.689)">
    <rect id="Rectangle_9908" data-name="Rectangle 9908" width="43.236" height="3.728" fill="#283e51"/>
  </g>
  <g id="Group_721" data-name="Group 721" transform="translate(274.286 22.689)">
    <rect id="Rectangle_9909" data-name="Rectangle 9909" width="135.697" height="3.728" fill="#283e51"/>
  </g>
  <g id="Group_722" data-name="Group 722" transform="translate(12.969 97.699)">
    <rect id="Rectangle_9910" data-name="Rectangle 9910" width="49.211" height="3.728" fill="#283e51"/>
  </g>
  <g id="Group_723" data-name="Group 723" transform="translate(153.87 5.337)">
    <rect id="Rectangle_9911" data-name="Rectangle 9911" width="176.977" height="3.728" fill="#283e51"/>
  </g>
  <g id="Group_724" data-name="Group 724" transform="translate(247.618 22.689)">
    <rect id="Rectangle_9912" data-name="Rectangle 9912" width="8.873" height="3.728" fill="#283e51"/>
  </g>
  <g id="Group_725" data-name="Group 725" transform="translate(436.459 38.256)">
    <path id="Path_195" data-name="Path 195" d="M1036.123,338.808a3.348,3.348,0,1,1-3.348-3.348A3.347,3.347,0,0,1,1036.123,338.808Z" transform="translate(-1029.428 -335.46)" fill="#283e51"/>
  </g>
  <g id="Group_726" data-name="Group 726" transform="translate(37.613 123.612)">
    <path id="Path_196" data-name="Path 196" d="M875.642,373.152a3.348,3.348,0,1,1-3.348-3.348A3.347,3.347,0,0,1,875.642,373.152Z" transform="translate(-868.947 -369.804)" fill="#283e51"/>
  </g>
  <g id="Group_727" data-name="Group 727" transform="translate(451.281 206.075)">
    <path id="Path_197" data-name="Path 197" d="M1042.088,406.332a3.348,3.348,0,1,1-3.348-3.348A3.347,3.347,0,0,1,1042.088,406.332Z" transform="translate(-1035.392 -402.984)" fill="#283e51"/>
  </g>
  <g id="Group_729" data-name="Group 729" transform="translate(300.293 138.743)" opacity="0.3">
    <g id="Group_728" data-name="Group 728">
      <path id="Path_198" data-name="Path 198" d="M1042.909,450.7V375.892h-28.658v1.864h-2.615v-1.864H1003.4v1.864h-2.339v-1.864h-3.472a5.58,5.58,0,0,0-5.572,5.575v29.163l-1.829,1.071-.981-1.68-11.979,7a5.237,5.237,0,0,0-2.59,4.511v36h61.437A6.839,6.839,0,0,0,1042.909,450.7Z" transform="translate(-974.64 -375.892)" fill="#283e51"/>
    </g>
  </g>
  <g id="Group_750" data-name="Group 750" transform="translate(305.264 138.743)">
    <g id="Group_731" data-name="Group 731" transform="translate(2.295 43.708)">
      <g id="Group_730" data-name="Group 730">
        <path id="Path_199" data-name="Path 199" d="M1096.709,394.094v-.615H977.564l59.357,34.806Z" transform="translate(-977.564 -393.479)" fill="#17ac9d"/>
      </g>
    </g>
    <g id="Group_733" data-name="Group 733" transform="translate(2.079 8.902)">
      <g id="Group_732" data-name="Group 732">
        <path id="Path_200" data-name="Path 200" d="M1096.622,413.665v.615H977.477l59.356-34.806Z" transform="translate(-977.477 -379.474)" fill="#f5f5f5"/>
      </g>
    </g>
    <g id="Group_735" data-name="Group 735" transform="translate(19.243 1.865)">
      <g id="Group_734" data-name="Group 734">
        <path id="Rectangle_9913" data-name="Rectangle 9913" d="M1.857,0h82.53a1.857,1.857,0,0,1,1.857,1.857v81.83a0,0,0,0,1,0,0H0a0,0,0,0,1,0,0V1.857A1.857,1.857,0,0,1,1.857,0Z" fill="#17ac9d"/>
      </g>
    </g>
    <g id="Group_738" data-name="Group 738" transform="translate(17.38)">
      <g id="Group_736" data-name="Group 736" transform="translate(11.382 0.001)">
        <rect id="Rectangle_9914" data-name="Rectangle 9914" width="8.235" height="3.728" fill="#283e51"/>
      </g>
      <g id="Group_737" data-name="Group 737">
        <path id="Path_201" data-name="Path 201" d="M1073.607,463.308H983.633V381.467a5.58,5.58,0,0,1,5.572-5.575h3.472v3.728h-3.472a1.847,1.847,0,0,0-1.844,1.847V459.58h82.518V381.467a1.848,1.848,0,0,0-1.847-1.847h-62.168v-3.728h62.168a5.58,5.58,0,0,1,5.575,5.575Z" transform="translate(-983.633 -375.892)" fill="#283e51"/>
      </g>
    </g>
    <g id="Group_740" data-name="Group 740" transform="translate(1.863 43.708)">
      <g id="Group_739" data-name="Group 739">
        <path id="Path_202" data-name="Path 202" d="M977.822,393.479h-.432v69l59.789-34.192Z" transform="translate(-977.39 -393.479)" fill="#f7f7f7"/>
      </g>
    </g>
    <g id="Group_742" data-name="Group 742" transform="translate(61.652 44.323)">
      <g id="Group_741" data-name="Group 741">
        <path id="Path_203" data-name="Path 203" d="M1061.235,393.726l-59.789,34.191,59.356,34.807h.432Z" transform="translate(-1001.447 -393.726)" fill="#f7f7f7"/>
      </g>
    </g>
    <g id="Group_744" data-name="Group 744" transform="translate(1.863 78.514)">
      <g id="Group_743" data-name="Group 743">
        <path id="Path_204" data-name="Path 204" d="M977.39,441.675v.615h119.145l-59.357-34.807-33.9,19.384Z" transform="translate(-977.39 -407.483)" fill="#f5f5f5"/>
      </g>
    </g>
    <g id="Group_745" data-name="Group 745" transform="translate(0 34.128)">
      <path id="Path_205" data-name="Path 205" d="M1096.022,470.68H980.562a3.927,3.927,0,0,1-3.922-3.922V401.134a5.237,5.237,0,0,1,2.589-4.511l11.979-7,1.879,3.219-11.982,7a1.507,1.507,0,0,0-.738,1.292v65.625a.194.194,0,0,0,.194.194h115.46a.194.194,0,0,0,.194-.194v-65.62a1.5,1.5,0,0,0-.746-1.295l-11.552-6.705,1.874-3.223,11.552,6.705a5.242,5.242,0,0,1,2.6,4.518v65.62A3.927,3.927,0,0,1,1096.022,470.68Z" transform="translate(-976.64 -389.624)" fill="#283e51"/>
    </g>
    <g id="Group_747" data-name="Group 747" transform="translate(49.843 22.539)">
      <g id="Group_746" data-name="Group 746">
        <path id="Path_206" data-name="Path 206" d="M996.7,414.34V384.961l25.445,14.688L996.7,414.34V384.961l25.445,14.688Z" transform="translate(-996.695 -384.961)" fill="#fff"/>
      </g>
    </g>
    <g id="Group_748" data-name="Group 748" transform="translate(1.353 42.101)">
      <rect id="Rectangle_9915" data-name="Rectangle 9915" width="3.727" height="137.617" transform="matrix(0.506, -0.863, 0.863, 0.506, 0, 3.215)" fill="#283e51"/>
    </g>
    <g id="Group_749" data-name="Group 749" transform="translate(1.334 42.134)">
      <rect id="Rectangle_9916" data-name="Rectangle 9916" width="137.617" height="3.727" transform="translate(0 69.544) rotate(-30.354)" fill="#283e51"/>
    </g>
  </g>
  <g id="Group_754" data-name="Group 754" transform="translate(42.142 250.199)">
    <g id="Group_751" data-name="Group 751" transform="translate(11.339)">
      <rect id="Rectangle_9917" data-name="Rectangle 9917" width="407.148" height="3.728" fill="#283e51"/>
    </g>
    <g id="Group_752" data-name="Group 752">
      <rect id="Rectangle_9918" data-name="Rectangle 9918" width="6.808" height="3.728" fill="#283e51"/>
    </g>
    <g id="Group_753" data-name="Group 753" transform="translate(422.37)">
      <rect id="Rectangle_9919" data-name="Rectangle 9919" width="15.036" height="3.728" fill="#283e51"/>
    </g>
  </g>
  <g id="Group_760" data-name="Group 760" transform="translate(372.417 59.452)">
    <g id="Group_755" data-name="Group 755" transform="translate(1.862 1.839)">
      <path id="Path_207" data-name="Path 207" d="M1067.081,404.487a33.387,33.387,0,1,0-50.7-12.181L1004.508,410.6a.594.594,0,0,0,.7.885l20.586-7.262A33.4,33.4,0,0,0,1067.081,404.487Z" transform="translate(-1004.409 -344.729)" fill="#fff"/>
    </g>
    <g id="Group_756" data-name="Group 756">
      <path id="Path_208" data-name="Path 208" d="M1047.71,414.5a35.124,35.124,0,0,1-21.145-7.078l-19.631,6.919a2.46,2.46,0,0,1-2.88-3.656l11.328-17.434a35.252,35.252,0,0,1,45.208-46.851l-1.359,3.469a31.524,31.524,0,0,0-40.043,42.747l.442.939-10.414,16.028,18.041-6.362.808.646a31.524,31.524,0,0,0,45.924-42.071l3.107-2.063A35.288,35.288,0,0,1,1047.71,414.5Z" transform="translate(-1003.66 -343.988)" fill="#283e51"/>
    </g>
    <g id="Group_757" data-name="Group 757" transform="translate(59.78 4.664)">
      <path id="Path_209" data-name="Path 209" d="M1035.669,355.617q-.794-.9-1.633-1.727a31.3,31.3,0,0,0-6.322-4.792l1.854-3.233a35.073,35.073,0,0,1,7.078,5.363c.626.611,1.233,1.255,1.819,1.924Z" transform="translate(-1027.713 -345.865)" fill="#283e51"/>
    </g>
    <g id="Group_758" data-name="Group 758" transform="translate(20.358 11.718)">
      <circle id="Ellipse_33" data-name="Ellipse 33" cx="23.516" cy="23.516" r="23.516" fill="#17ac9d"/>
    </g>
    <g id="Group_759" data-name="Group 759" transform="translate(35.928 25.581)">
      <path id="Path_210" data-name="Path 210" d="M1034.008,363.456l-15.891-9.175v18.35Z" transform="translate(-1018.116 -354.281)" fill="#fff"/>
    </g>
  </g>
</svg>
