<svg id="Group_1169" data-name="Group 1169" xmlns="http://www.w3.org/2000/svg" width="488" height="269.037" viewBox="0 0 488 269.037">
  <g id="Apps_DEvelopment" data-name="Apps DEvelopment">
    <g id="Group_668" data-name="Group 668">
      <g id="Group_544" data-name="Group 544" transform="translate(0 29.72)">
        <path id="Path_125" data-name="Path 125" d="M853.238,325.239h-179.7a14.639,14.639,0,0,0-14.64,14.638h0a14.641,14.641,0,0,0,14.64,14.64h49.357a8.406,8.406,0,0,0,8.406,8.406h19.276a13.27,13.27,0,0,1,13.271,13.271h0a13.27,13.27,0,0,1-13.271,13.271H622.033a15.192,15.192,0,0,0-15.193,15.191h0a15.192,15.192,0,0,0,15.166,15.193l85.067.094a13.127,13.127,0,0,1,13.113,13.126h0A13.129,13.129,0,0,1,707.058,446.2h-45.7a17.623,17.623,0,0,0-17.623,17.623h0a17.623,17.623,0,0,0,17.623,17.621h14.364a21.191,21.191,0,0,1,21.191,21.191v60.074H997.047V470.538l79.365,0a12.917,12.917,0,0,0,12.916-12.918v-.333a13.318,13.318,0,0,0-13.3-13.382h-66.96a12.021,12.021,0,0,1-12.02-12.028h0a12.033,12.033,0,0,1,12.062-12.028l9.824.025a30.808,30.808,0,0,0,30.89-30.811v-5.04H965.938a14.477,14.477,0,0,1-14.478-14.478h0a14.477,14.477,0,0,1,14.478-14.478h113.988a14.915,14.915,0,0,0,14.914-14.917h0a14.914,14.914,0,0,0-14.914-14.914Z" transform="translate(-606.84 -325.239)" fill="#f5f5f5"/>
      </g>
      <g id="Group_566" data-name="Group 566" transform="translate(72.574 115.26)">
        <g id="Group_548" data-name="Group 548" transform="translate(76.454 31.55)">
          <g id="Group_545" data-name="Group 545" transform="translate(0 0.912)">
            <rect id="Rectangle_9827" data-name="Rectangle 9827" width="60.816" height="60.816" rx="1.064" transform="translate(18.283 0) rotate(17.495)" fill="#fff"/>
          </g>
          <g id="Group_546" data-name="Group 546" transform="translate(10.042 9.841)">
            <rect id="Rectangle_9828" data-name="Rectangle 9828" width="45.44" height="42.787" transform="translate(12.863 0) rotate(17.495)" fill="#17ac9d"/>
          </g>
          <g id="Group_547" data-name="Group 547" transform="translate(10.285)">
            <path id="Path_126" data-name="Path 126" d="M727.159,430.58l-3.531-1.113,10.9-34.588a1.869,1.869,0,0,0-1.219-2.341L682.4,376.488a1.866,1.866,0,0,0-2.339,1.221l-5.115,16.227-3.531-1.113,5.115-16.227a5.568,5.568,0,0,1,6.982-3.637l50.918,16.049a5.575,5.575,0,0,1,3.634,6.982Z" transform="translate(-671.412 -372.697)" fill="#283e51"/>
          </g>
        </g>
        <g id="Group_555" data-name="Group 555" transform="translate(0 34.122)">
          <g id="Group_549" data-name="Group 549" transform="translate(1.295 1.296)">
            <rect id="Rectangle_9829" data-name="Rectangle 9829" width="65.739" height="46.23" rx="1.556" transform="translate(0 14.428) rotate(-12.678)" fill="#fff"/>
          </g>
          <g id="Group_550" data-name="Group 550" transform="translate(1.296 1.295)">
            <path id="Path_127" data-name="Path 127" d="M700.916,374.265l-25.869,28.523a2.381,2.381,0,0,1-2.675.6l-35.592-14.7Z" transform="translate(-636.781 -374.265)" fill="#f5f5f5"/>
          </g>
          <g id="Group_551" data-name="Group 551" transform="translate(1.269 0.96)">
            <path id="Path_128" data-name="Path 128" d="M673.292,405.618a4.22,4.22,0,0,1-1.609-.318L636.77,390.886l1.414-3.422,34.911,14.416a.546.546,0,0,0,.6-.133l25.047-27.618,2.741,2.484-25.045,27.618A4.244,4.244,0,0,1,673.292,405.618Z" transform="translate(-636.77 -374.129)" fill="#283e51"/>
          </g>
          <g id="Group_552" data-name="Group 552" transform="translate(0 11.941)">
            <path id="Path_129" data-name="Path 129" d="M644.64,422.306l-8.27-36.754a4.71,4.71,0,0,1,3.558-5.62l6.01-1.352.812,3.61-6.01,1.352a1,1,0,0,0-.757,1.2l8.27,36.754Z" transform="translate(-636.255 -378.58)" fill="#283e51"/>
          </g>
          <g id="Group_553" data-name="Group 553" transform="translate(25.317)">
            <path id="Path_130" data-name="Path 130" d="M688.61,392.261l-3.158-14.036a1.019,1.019,0,0,0-1.2-.76l-36.924,8.307-.812-3.61,36.927-8.307a4.712,4.712,0,0,1,5.62,3.555l3.156,14.036Z" transform="translate(-646.517 -373.74)" fill="#283e51"/>
          </g>
          <g id="Group_554" data-name="Group 554" transform="translate(14.739 9.252)">
            <rect id="Rectangle_9830" data-name="Rectangle 9830" width="7.073" height="3.699" transform="translate(0 1.552) rotate(-12.678)" fill="#283e51"/>
          </g>
        </g>
        <g id="Group_556" data-name="Group 556" transform="translate(4.272 58.851)">
          <path id="Path_131" data-name="Path 131" d="M770.047,420.364h-.585a21.224,21.224,0,0,0-31.874-11.959,29.081,29.081,0,0,0-56.514-4.184,19.892,19.892,0,0,0-24.909,16.143h-3.254a14.966,14.966,0,0,0-14.924,14.922v1.1a14.966,14.966,0,0,0,14.924,14.922H770.047a14.965,14.965,0,0,0,14.922-14.922v-1.1A14.965,14.965,0,0,0,770.047,420.364Z" transform="translate(-637.987 -383.763)" fill="#fff"/>
        </g>
        <g id="Group_557" data-name="Group 557" transform="translate(2.421 57)">
          <path id="Path_132" data-name="Path 132" d="M787.917,437.487h-3.7v-1.1a13.086,13.086,0,0,0-13.069-13.074h-1.976l-.385-1.335a19.376,19.376,0,0,0-29.1-10.913l-2.4,1.54-.432-2.815a27.231,27.231,0,0,0-52.919-3.918l-.526,1.7-1.722-.464a18.007,18.007,0,0,0-22.6,14.643l-.247,1.559h-4.836a13.088,13.088,0,0,0-13.074,13.074v1.1h-3.7v-1.1a16.794,16.794,0,0,1,16.775-16.775h1.729a21.707,21.707,0,0,1,21.243-16.846,21.329,21.329,0,0,1,3.98.382,30.933,30.933,0,0,1,59.045,3.494,22.977,22.977,0,0,1,10.145-2.359,23.227,23.227,0,0,1,21.758,15.346,16.8,16.8,0,0,1,16,16.757Z" transform="translate(-637.237 -383.013)" fill="#283e51"/>
        </g>
        <g id="Group_558" data-name="Group 558" transform="translate(60.48 68.233)">
          <path id="Path_133" data-name="Path 133" d="M692.84,401.476a22.385,22.385,0,0,0-30.181-7.091l-1.89-3.18a26.08,26.08,0,0,1,35.173,8.255Z" transform="translate(-660.769 -387.566)" fill="#283e51"/>
        </g>
        <g id="Group_559" data-name="Group 559" transform="translate(42.541 76.666)">
          <path id="Path_134" data-name="Path 134" d="M665.706,403.192H662a8.517,8.517,0,0,0-8.507-8.507v-3.7A12.223,12.223,0,0,1,665.706,403.192Z" transform="translate(-653.498 -390.984)" fill="#283e51"/>
        </g>
        <g id="Group_565" data-name="Group 565" transform="translate(62.311)">
          <g id="Group_560" data-name="Group 560" transform="translate(1.848 18.879)">
            <path id="Path_135" data-name="Path 135" d="M673.828,370.666c.38,2.2-1.892,4.426-5.075,4.974s-6.069-.785-6.452-2.98,1.892-4.424,5.075-4.974S673.446,368.47,673.828,370.666Z" transform="translate(-662.26 -367.562)" fill="#fff"/>
          </g>
          <g id="Group_561" data-name="Group 561" transform="translate(0 17.027)">
            <path id="Path_136" data-name="Path 136" d="M668.407,378.717c-3.491,0-6.343-1.848-6.827-4.638a5.377,5.377,0,0,1,1.727-4.742,9.178,9.178,0,0,1,4.855-2.373c4.256-.73,8.023,1.239,8.586,4.488h0a5.378,5.378,0,0,1-1.727,4.742,9.2,9.2,0,0,1-4.856,2.373A10.305,10.305,0,0,1,668.407,378.717Zm1.5-8.2a6.517,6.517,0,0,0-1.11.1,5.548,5.548,0,0,0-2.892,1.367,1.906,1.906,0,0,0-.676,1.471c.178,1.016,2.06,1.87,4.313,1.47a5.544,5.544,0,0,0,2.892-1.364,1.905,1.905,0,0,0,.676-1.47h0C672.956,371.239,671.636,370.514,669.9,370.514Z" transform="translate(-661.511 -366.811)" fill="#283e51"/>
          </g>
          <g id="Group_562" data-name="Group 562" transform="translate(18.184 18.879)">
            <path id="Path_137" data-name="Path 137" d="M680.449,370.666c.38,2.2-1.892,4.426-5.078,4.974s-6.069-.785-6.449-2.98,1.892-4.424,5.077-4.974S680.069,368.47,680.449,370.666Z" transform="translate(-668.881 -367.562)" fill="#fff"/>
          </g>
          <g id="Group_563" data-name="Group 563" transform="translate(16.332 17.026)">
            <path id="Path_138" data-name="Path 138" d="M675.027,378.718c-3.491,0-6.343-1.848-6.827-4.638-.56-3.259,2.332-6.38,6.585-7.115s8.026,1.239,8.588,4.488a5.386,5.386,0,0,1-1.73,4.742,9.2,9.2,0,0,1-4.855,2.373A10.332,10.332,0,0,1,675.027,378.718Zm1.5-8.2a6.526,6.526,0,0,0-1.113.1c-2.255.39-3.743,1.821-3.568,2.84s2.053,1.868,4.313,1.468a5.572,5.572,0,0,0,2.894-1.364,1.912,1.912,0,0,0,.674-1.47h0C679.579,371.24,678.259,370.515,676.527,370.515Z" transform="translate(-668.131 -366.811)" fill="#283e51"/>
          </g>
          <g id="Group_564" data-name="Group 564" transform="translate(11.606)">
            <path id="Path_139" data-name="Path 139" d="M686.252,382.372h-3.7V363.611H669.916v18.762h-3.7V359.91h20.036Z" transform="translate(-666.215 -359.91)" fill="#283e51"/>
          </g>
        </g>
      </g>
      <g id="Group_573" data-name="Group 573" transform="translate(299.142 173.171)">
        <g id="Group_567" data-name="Group 567" transform="translate(0 12.751)">
          <path id="Path_140" data-name="Path 140" d="M841.727,469.734l-.4-71.409c0-5.4-4.92-9.775-10.989-9.775H728.087l.4,81.265Z" transform="translate(-728.087 -388.55)" fill="#fff"/>
        </g>
        <g id="Group_568" data-name="Group 568" transform="translate(21.087 10.903)">
          <path id="Path_141" data-name="Path 141" d="M827.336,467.532l-.4-66.881A9.151,9.151,0,0,0,817.8,391.5H736.634v-3.7H817.8a12.853,12.853,0,0,1,12.839,12.837l.4,66.869Z" transform="translate(-736.634 -387.801)" fill="#283e51"/>
        </g>
        <g id="Group_569" data-name="Group 569" transform="translate(102.232 1.848)">
          <path id="Path_142" data-name="Path 142" d="M769.523,476.3h11.408V392.026c0-4.36-3.92-7.9-8.756-7.9h-2.652Z" transform="translate(-769.523 -384.131)" fill="#17ac9d"/>
        </g>
        <g id="Group_570" data-name="Group 570" transform="translate(100.381)">
          <path id="Path_143" data-name="Path 143" d="M783.882,477.4h-3.7V393.986a6.911,6.911,0,0,0-6.906-6.9h-.8V477.4h-3.7V383.382h4.5a10.616,10.616,0,0,1,10.607,10.6Z" transform="translate(-768.773 -383.382)" fill="#283e51"/>
        </g>
        <g id="Group_571" data-name="Group 571" transform="translate(39.534 29.779)">
          <path id="Path_144" data-name="Path 144" d="M778.694,401.386a20.259,20.259,0,1,1-28.649,0A20.259,20.259,0,0,1,778.694,401.386Z" transform="translate(-744.111 -395.452)" fill="#f5f5f5"/>
        </g>
        <g id="Group_572" data-name="Group 572" transform="translate(28.005 37.604)">
          <path id="Path_145" data-name="Path 145" d="M760.266,442.81a22.293,22.293,0,0,1-5.24-.945l1.088-3.535a18.514,18.514,0,0,0,4.367.785Zm5.314-.333-.671-3.637a18.492,18.492,0,0,0,4.231-1.327l1.522,3.375A22.11,22.11,0,0,1,765.581,442.477Zm-15.42-2.783a22.065,22.065,0,0,1-4.2-3.276l2.61-2.62a18.4,18.4,0,0,0,3.5,2.726Zm25.055-1.574-2.292-2.906a18.629,18.629,0,0,0,1.643-1.463,17.974,17.974,0,0,0,1.493-1.683l2.916,2.28a22.307,22.307,0,0,1-1.8,2.026A23.329,23.329,0,0,1,775.215,438.12Zm-32.55-5.879a22.081,22.081,0,0,1-2.206-4.851l3.531-1.113a18.283,18.283,0,0,0,1.833,4.036Zm39.061-2.452-3.378-1.515a18.363,18.363,0,0,0,1.313-4.234l3.639.659A22.02,22.02,0,0,1,781.726,429.788Zm-42.244-7.631c-.03-.476-.047-.95-.044-1.426a22.088,22.088,0,0,1,.345-3.891l3.642.649a18.55,18.55,0,0,0-.286,3.247c0,.4.012.792.037,1.184Zm40.44-2.544a18.576,18.576,0,0,0-.8-4.365l3.535-1.1a22.326,22.326,0,0,1,.957,5.235Zm-35.2-6.363-3.383-1.5a21.963,21.963,0,0,1,2.741-4.569L747,409.451A18.374,18.374,0,0,0,744.723,413.25Zm32.582-2.043a18.6,18.6,0,0,0-2.739-3.489l1.214-1.4,1.335-1.283-1.335,1.283,1.354-1.263a22.225,22.225,0,0,1,3.336,4.234Zm-27.181-4.91-2.3-2.9a22.055,22.055,0,0,1,4.545-2.781l1.532,3.37A18.257,18.257,0,0,0,750.123,406.3Zm20.853-1.377a18.257,18.257,0,0,0-4.051-1.794L768,399.584a21.968,21.968,0,0,1,4.873,2.159Zm-12.847-2.275-.683-3.639a21.95,21.95,0,0,1,5.322-.348l-.217,3.7A17.9,17.9,0,0,0,758.13,402.646Z" transform="translate(-739.438 -398.623)" fill="#283e51"/>
        </g>
      </g>
      <g id="Group_580" data-name="Group 580" transform="translate(269.025 20.978)">
        <g id="Group_574" data-name="Group 574" transform="translate(1.853 1.85)">
          <path id="Path_146" data-name="Path 146" d="M872.477,365.639h-.688a25.051,25.051,0,0,0-37.618-14.113,34.32,34.32,0,0,0-66.694-4.939,23.481,23.481,0,0,0-29.4,19.052H734.24a17.66,17.66,0,0,0-17.608,17.608v1.3a17.662,17.662,0,0,0,17.608,17.611H872.477a17.662,17.662,0,0,0,17.611-17.611v-1.3A17.66,17.66,0,0,0,872.477,365.639Z" transform="translate(-716.631 -322.446)" fill="#f5f5f5"/>
        </g>
        <g id="Group_575" data-name="Group 575" transform="translate(4.115 11.29)">
          <path id="Path_147" data-name="Path 147" d="M854.935,364.351h-.607a22.081,22.081,0,0,0-33.159-12.44,30.255,30.255,0,0,0-58.8-4.355,20.689,20.689,0,0,0-25.913,16.794h-3.388a15.568,15.568,0,0,0-15.524,15.524v1.142a15.57,15.57,0,0,0,15.524,15.526H854.935a15.57,15.57,0,0,0,15.524-15.526v-1.142A15.568,15.568,0,0,0,854.935,364.351Z" transform="translate(-717.548 -326.272)" fill="#fff"/>
        </g>
        <g id="Group_576" data-name="Group 576" transform="translate(68.354 13.254)">
          <path id="Path_148" data-name="Path 148" d="M781.543,342.969a26.747,26.747,0,0,0-36.071-8.47l-1.887-3.185a30.447,30.447,0,0,1,41.059,9.642Z" transform="translate(-743.585 -327.068)" fill="#283e51"/>
        </g>
        <g id="Group_577" data-name="Group 577" transform="translate(0 43.193)">
          <path id="Path_149" data-name="Path 149" d="M798.914,379.421H735.341A19.483,19.483,0,0,1,715.88,359.96v-1.3A19.483,19.483,0,0,1,735.341,339.2v3.7a15.778,15.778,0,0,0-15.76,15.761v1.3a15.779,15.779,0,0,0,15.76,15.761h63.573Z" transform="translate(-715.88 -339.203)" fill="#283e51"/>
        </g>
        <g id="Group_578" data-name="Group 578" transform="translate(29.069)">
          <path id="Path_150" data-name="Path 150" d="M856.293,405.108H835.21v-3.7h21.082a15.777,15.777,0,0,0,15.758-15.761v-1.3a15.776,15.776,0,0,0-15.758-15.761h-2.077l-.387-1.335a23.2,23.2,0,0,0-34.84-13.071l-2.4,1.54-.434-2.815a32.475,32.475,0,0,0-63.1-4.67l-.528,1.7-1.72-.461a21.431,21.431,0,0,0-20.6,5.208l-2.551-2.679a25.051,25.051,0,0,1,22.417-6.5,36.226,36.226,0,0,1,2.42-5.282,36.6,36.6,0,0,1,3.908-5.645,36.164,36.164,0,0,1,62.909,15.156A26.9,26.9,0,0,1,856.959,364.9a19.481,19.481,0,0,1,18.793,19.449v1.3A19.481,19.481,0,0,1,856.293,405.108Z" transform="translate(-727.662 -321.696)" fill="#283e51"/>
        </g>
        <g id="Group_579" data-name="Group 579" transform="translate(47.013 23.207)">
          <path id="Path_151" data-name="Path 151" d="M749.008,345.175h-3.7A10.384,10.384,0,0,0,734.935,334.8v-3.7A14.089,14.089,0,0,1,749.008,345.175Z" transform="translate(-734.935 -331.102)" fill="#283e51"/>
        </g>
      </g>
      <g id="Group_583" data-name="Group 583" transform="translate(463.343 82.429)">
        <g id="Group_581" data-name="Group 581" transform="translate(0 5.272)">
          <path id="Path_152" data-name="Path 152" d="M807.035,352.441H796.49a1.85,1.85,0,0,1,0-3.7h10.545a1.85,1.85,0,0,1,0,3.7Z" transform="translate(-794.64 -348.74)" fill="#283e51"/>
        </g>
        <g id="Group_582" data-name="Group 582" transform="translate(5.272)">
          <path id="Path_153" data-name="Path 153" d="M798.627,360.851a1.851,1.851,0,0,1-1.85-1.85V348.453a1.85,1.85,0,1,1,3.7,0V359A1.851,1.851,0,0,1,798.627,360.851Z" transform="translate(-796.777 -346.603)" fill="#283e51"/>
        </g>
      </g>
      <g id="Group_586" data-name="Group 586" transform="translate(112.919 71.097)">
        <g id="Group_584" data-name="Group 584" transform="translate(0 5.275)">
          <path id="Path_154" data-name="Path 154" d="M665.006,347.849H654.458a1.85,1.85,0,1,1,0-3.7h10.547a1.85,1.85,0,1,1,0,3.7Z" transform="translate(-652.608 -344.148)" fill="#283e51"/>
        </g>
        <g id="Group_585" data-name="Group 585" transform="translate(5.275)">
          <path id="Path_155" data-name="Path 155" d="M656.6,356.258a1.85,1.85,0,0,1-1.85-1.85V343.86a1.85,1.85,0,0,1,3.7,0v10.547A1.851,1.851,0,0,1,656.6,356.258Z" transform="translate(-654.746 -342.01)" fill="#283e51"/>
        </g>
      </g>
      <g id="Group_589" data-name="Group 589" transform="translate(365.723)">
        <g id="Group_587" data-name="Group 587">
          <path id="Path_156" data-name="Path 156" d="M756.925,324.349a1.852,1.852,0,0,1-1.31-3.16l7.458-7.453a1.849,1.849,0,0,1,2.615,2.615l-7.456,7.456A1.851,1.851,0,0,1,756.925,324.349Z" transform="translate(-755.073 -313.193)" fill="#283e51"/>
        </g>
        <g id="Group_588" data-name="Group 588">
          <path id="Path_157" data-name="Path 157" d="M764.381,324.349a1.846,1.846,0,0,1-1.308-.543l-7.458-7.456a1.85,1.85,0,0,1,2.618-2.615l7.456,7.453a1.852,1.852,0,0,1-1.308,3.16Z" transform="translate(-755.073 -313.193)" fill="#283e51"/>
        </g>
      </g>
      <g id="Group_592" data-name="Group 592" transform="translate(69.038 128.559)">
        <g id="Group_590" data-name="Group 590">
          <path id="Path_158" data-name="Path 158" d="M636.674,376.459a1.85,1.85,0,0,1-1.31-3.158l7.458-7.458a1.85,1.85,0,0,1,2.615,2.618l-7.456,7.456A1.84,1.84,0,0,1,636.674,376.459Z" transform="translate(-634.822 -365.3)" fill="#283e51"/>
        </g>
        <g id="Group_591" data-name="Group 591">
          <path id="Path_159" data-name="Path 159" d="M644.13,376.459a1.836,1.836,0,0,1-1.308-.543l-7.458-7.456a1.851,1.851,0,0,1,2.618-2.618l7.456,7.458a1.85,1.85,0,0,1-1.308,3.158Z" transform="translate(-634.822 -365.3)" fill="#283e51"/>
        </g>
      </g>
      <g id="Group_593" data-name="Group 593" transform="translate(190.698 17.323)">
        <rect id="Rectangle_9831" data-name="Rectangle 9831" width="78.928" height="3.701" fill="#283e51"/>
      </g>
      <g id="Group_594" data-name="Group 594" transform="translate(233.851 3.753)">
        <rect id="Rectangle_9832" data-name="Rectangle 9832" width="125.138" height="3.701" fill="#283e51"/>
      </g>
      <g id="Group_595" data-name="Group 595" transform="translate(275.794 17.323)">
        <rect id="Rectangle_9833" data-name="Rectangle 9833" width="13.653" height="3.701" fill="#283e51"/>
      </g>
      <g id="Group_596" data-name="Group 596" transform="translate(419.442 127.565)">
        <rect id="Rectangle_9834" data-name="Rectangle 9834" width="42.918" height="3.701" fill="#283e51"/>
      </g>
      <g id="Group_597" data-name="Group 597" transform="translate(466.061 127.565)">
        <rect id="Rectangle_9835" data-name="Rectangle 9835" width="8.809" height="3.701" fill="#283e51"/>
      </g>
      <g id="Group_598" data-name="Group 598" transform="translate(49.133 76.372)">
        <rect id="Rectangle_9836" data-name="Rectangle 9836" width="42.918" height="3.701" fill="#283e51"/>
      </g>
      <g id="Group_599" data-name="Group 599" transform="translate(95.752 76.372)">
        <rect id="Rectangle_9837" data-name="Rectangle 9837" width="8.81" height="3.701" fill="#283e51"/>
      </g>
      <g id="Group_600" data-name="Group 600" transform="translate(118.7 20.181)">
        <path id="Path_160" data-name="Path 160" d="M660.246,324.02a2.647,2.647,0,1,1-2.647-2.647A2.647,2.647,0,0,1,660.246,324.02Z" transform="translate(-654.951 -321.373)" fill="#283e51"/>
      </g>
      <g id="Group_601" data-name="Group 601" transform="translate(183.849 98.95)">
        <path id="Path_161" data-name="Path 161" d="M688,356.62a3.322,3.322,0,1,1-3.323-3.321A3.323,3.323,0,0,1,688,356.62Z" transform="translate(-681.357 -353.299)" fill="#283e51"/>
      </g>
      <g id="Group_602" data-name="Group 602" transform="translate(443.832 26.396)">
        <path id="Path_162" data-name="Path 162" d="M793.379,327.215a3.323,3.323,0,1,1-3.323-3.323A3.323,3.323,0,0,1,793.379,327.215Z" transform="translate(-786.732 -323.892)" fill="#283e51"/>
      </g>
      <g id="Group_603" data-name="Group 603" transform="translate(194.767 154.435)" opacity="0.3">
        <path id="Path_163" data-name="Path 163" d="M713.343,384.475l-27.561-8.687v87.218h14.14a14.966,14.966,0,0,0,14.922-14.919h1.848v-1.1a16.788,16.788,0,0,0-13.95-16.52l1.569-4.979,1.764.557,10.9-34.588A5.575,5.575,0,0,0,713.343,384.475Z" transform="translate(-685.782 -375.788)" fill="#0565a2"/>
      </g>
      <g id="Group_604" data-name="Group 604" transform="translate(299.14 184.073)" opacity="0.3">
        <path id="Path_164" data-name="Path 164" d="M750.7,461.381V387.8h-1.525v1.848h-21.09l.4,81.265,17.034-.012A11.367,11.367,0,0,0,750.7,461.381Z" transform="translate(-728.086 -387.801)" fill="#0565a2"/>
      </g>
      <g id="Group_620" data-name="Group 620" transform="translate(199.701 57.702)">
        <g id="Group_605" data-name="Group 605" transform="translate(1.851 1.85)">
          <rect id="Rectangle_9838" data-name="Rectangle 9838" width="112.185" height="207.634" rx="4.915" fill="#f5f5f5"/>
        </g>
        <g id="Group_606" data-name="Group 606" transform="translate(18.612)">
          <rect id="Rectangle_9839" data-name="Rectangle 9839" width="7.111" height="3.701" fill="#283e51"/>
        </g>
        <g id="Group_607" data-name="Group 607" transform="translate(0 0)">
          <path id="Path_165" data-name="Path 165" d="M792.283,547.915H699.166a11.4,11.4,0,0,1-11.384-11.384V347.965a11.4,11.4,0,0,1,11.384-11.384h2.709v3.7h-2.709a7.692,7.692,0,0,0-7.683,7.683V536.531a7.692,7.692,0,0,0,7.683,7.683h93.118a7.692,7.692,0,0,0,7.683-7.683V447.063h3.7v89.469A11.4,11.4,0,0,1,792.283,547.915Z" transform="translate(-687.782 -336.581)" fill="#283e51"/>
        </g>
        <g id="Group_608" data-name="Group 608" transform="translate(29.165 0)">
          <path id="Path_166" data-name="Path 166" d="M786.323,354.634h-3.7v-6.669a7.692,7.692,0,0,0-7.683-7.683H699.6v-3.7h75.336a11.4,11.4,0,0,1,11.384,11.384Z" transform="translate(-699.603 -336.581)" fill="#283e51"/>
        </g>
        <g id="Group_609" data-name="Group 609" transform="translate(41.402 13.736)">
          <rect id="Rectangle_9840" data-name="Rectangle 9840" width="33.082" height="3.701" fill="#283e51"/>
        </g>
        <g id="Group_610" data-name="Group 610" transform="translate(48.873 187.474)">
          <path id="Path_167" data-name="Path 167" d="M716.661,430.709a9.071,9.071,0,1,1,9.069-9.072A9.082,9.082,0,0,1,716.661,430.709Zm0-14.441a5.37,5.37,0,1,0,5.369,5.369A5.374,5.374,0,0,0,716.661,416.268Z" transform="translate(-707.591 -412.567)" fill="#283e51"/>
        </g>
        <g id="Group_611" data-name="Group 611" transform="translate(7.807 22.349)">
          <rect id="Rectangle_9841" data-name="Rectangle 9841" width="98.874" height="162.909" fill="#fff"/>
        </g>
        <g id="Group_612" data-name="Group 612" transform="translate(17.979 155.704)">
          <rect id="Rectangle_9842" data-name="Rectangle 9842" width="18.888" height="18.888" rx="0.389" fill="#17ac9d"/>
        </g>
        <g id="Group_613" data-name="Group 613" transform="translate(75.413 155.704)">
          <rect id="Rectangle_9843" data-name="Rectangle 9843" width="18.888" height="18.888" rx="0.389" fill="#f5f5f5"/>
        </g>
        <g id="Group_614" data-name="Group 614" transform="translate(18.549 127.883)">
          <rect id="Rectangle_9844" data-name="Rectangle 9844" width="18.889" height="18.888" rx="0.389" fill="#283e51"/>
        </g>
        <g id="Group_615" data-name="Group 615" transform="translate(47.266 127.883)">
          <rect id="Rectangle_9845" data-name="Rectangle 9845" width="18.888" height="18.888" rx="0.389" fill="#f5f5f5"/>
        </g>
        <g id="Group_616" data-name="Group 616" transform="translate(75.983 127.883)">
          <rect id="Rectangle_9846" data-name="Rectangle 9846" width="18.888" height="18.888" rx="0.389" fill="#283e51"/>
        </g>
        <g id="Group_617" data-name="Group 617" transform="translate(47.836 100.062)">
          <rect id="Rectangle_9847" data-name="Rectangle 9847" width="18.888" height="18.888" rx="0.389" fill="#f5f5f5"/>
        </g>
        <g id="Group_618" data-name="Group 618" transform="translate(18.549 72.315)">
          <rect id="Rectangle_9848" data-name="Rectangle 9848" width="18.889" height="18.888" rx="0.389" fill="#283e51"/>
        </g>
        <g id="Group_619" data-name="Group 619" transform="translate(46.696 44.568)">
          <rect id="Rectangle_9849" data-name="Rectangle 9849" width="18.888" height="18.888" rx="0.389" fill="#f5f5f5"/>
        </g>
      </g>
      <g id="Group_624" data-name="Group 624" transform="translate(35.661 265.336)">
        <g id="Group_621" data-name="Group 621" transform="translate(11.257)">
          <rect id="Rectangle_9850" data-name="Rectangle 9850" width="404.183" height="3.701" fill="#283e51"/>
        </g>
        <g id="Group_622" data-name="Group 622">
          <rect id="Rectangle_9851" data-name="Rectangle 9851" width="6.758" height="3.701" fill="#283e51"/>
        </g>
        <g id="Group_623" data-name="Group 623" transform="translate(419.295)">
          <rect id="Rectangle_9852" data-name="Rectangle 9852" width="14.925" height="3.701" fill="#283e51"/>
        </g>
      </g>
      <g id="Group_625" data-name="Group 625" transform="translate(277.729 82.513)" opacity="0.3">
        <path id="Path_168" data-name="Path 168" d="M738.206,357.34a45.17,45.17,0,0,0-6.731,54.846l-11.8,24.384a2.615,2.615,0,0,0,3.523,3.479l24.25-12.144a45.1,45.1,0,0,0,7.972,3.614V346.637A44.7,44.7,0,0,0,738.206,357.34Z" transform="translate(-719.408 -346.637)" fill="#0565a2"/>
      </g>
      <g id="Group_639" data-name="Group 639" transform="translate(278.963 76.37)">
        <g id="Group_626" data-name="Group 626" transform="translate(1.847 1.852)">
          <path id="Path_169" data-name="Path 169" d="M799.763,418.347a43.026,43.026,0,1,0-66.78-7.419l-12.247,25.3a.766.766,0,0,0,1.034,1.016l25.156-12.6A43.033,43.033,0,0,0,799.763,418.347Z" transform="translate(-720.657 -344.898)" fill="#fff"/>
        </g>
        <g id="Group_627" data-name="Group 627">
          <path id="Path_170" data-name="Path 170" d="M722.526,440.277a2.615,2.615,0,0,1-2.354-3.755l11.8-24.384a45.17,45.17,0,0,1,6.73-54.846,44.872,44.872,0,0,1,63.464,0,45.378,45.378,0,0,1,4.767,5.608l-3.008,2.159a41.759,41.759,0,0,0-4.374-5.149,41.17,41.17,0,0,0-58.231,0,41.427,41.427,0,0,0-5.677,51.131l.55.868-11.3,23.352,23.222-11.628.876.538a41.036,41.036,0,0,0,50.565-6.03,41.622,41.622,0,0,0,5.006-6.059l3.064,2.077a45.34,45.34,0,0,1-5.453,6.6,44.721,44.721,0,0,1-54.227,7.1L723.7,440A2.625,2.625,0,0,1,722.526,440.277Z" transform="translate(-719.908 -344.147)" fill="#283e51"/>
        </g>
        <g id="Group_628" data-name="Group 628" transform="translate(20.42 24.318)">
          <rect id="Rectangle_9853" data-name="Rectangle 9853" width="12.627" height="3.701" fill="#283e51"/>
        </g>
        <g id="Group_629" data-name="Group 629" transform="translate(36.122 24.318)">
          <rect id="Rectangle_9854" data-name="Rectangle 9854" width="64.019" height="3.701" fill="#283e51"/>
        </g>
        <g id="Group_630" data-name="Group 630" transform="translate(28.025 33.108)">
          <rect id="Rectangle_9855" data-name="Rectangle 9855" width="22.527" height="3.701" fill="#283e51"/>
        </g>
        <g id="Group_631" data-name="Group 631" transform="translate(23.002 41.864)">
          <rect id="Rectangle_9856" data-name="Rectangle 9856" width="16.287" height="3.701" fill="#283e51"/>
        </g>
        <g id="Group_632" data-name="Group 632" transform="translate(43.936 41.864)">
          <rect id="Rectangle_9857" data-name="Rectangle 9857" width="59.972" height="3.701" fill="#283e51"/>
        </g>
        <g id="Group_633" data-name="Group 633" transform="translate(25.176 51.195)">
          <rect id="Rectangle_9858" data-name="Rectangle 9858" width="32.495" height="3.701" fill="#283e51"/>
        </g>
        <g id="Group_634" data-name="Group 634" transform="translate(25.176 61.242)">
          <rect id="Rectangle_9859" data-name="Rectangle 9859" width="14.113" height="3.701" fill="#283e51"/>
        </g>
        <g id="Group_635" data-name="Group 635" transform="translate(43.936 61.242)">
          <rect id="Rectangle_9860" data-name="Rectangle 9860" width="74.648" height="3.701" fill="#283e51"/>
        </g>
        <g id="Group_636" data-name="Group 636" transform="translate(61.439 51.195)">
          <rect id="Rectangle_9861" data-name="Rectangle 9861" width="17.905" height="3.701" fill="#283e51"/>
        </g>
        <g id="Group_637" data-name="Group 637" transform="translate(54.393 33.108)">
          <rect id="Rectangle_9862" data-name="Rectangle 9862" width="11.264" height="3.701" fill="#283e51"/>
        </g>
        <g id="Group_638" data-name="Group 638" transform="translate(103.907 24.318)">
          <rect id="Rectangle_9863" data-name="Rectangle 9863" width="14.676" height="3.701" fill="#283e51"/>
        </g>
      </g>
      <g id="Group_651" data-name="Group 651" transform="translate(59.818 231.34)">
        <g id="Group_640" data-name="Group 640" transform="translate(1.851 1.85)">
          <rect id="Rectangle_9864" data-name="Rectangle 9864" width="33.124" height="150.65" rx="1.405" transform="translate(150.65 0) rotate(90)" fill="#f5f5f5"/>
        </g>
        <g id="Group_641" data-name="Group 641">
          <path id="Path_171" data-name="Path 171" d="M780.12,443.785H636.4a5.324,5.324,0,0,1-5.317-5.319V412.276a5.324,5.324,0,0,1,5.317-5.317H780.12a5.323,5.323,0,0,1,5.317,5.314v26.192A5.324,5.324,0,0,1,780.12,443.785ZM636.4,410.66a1.618,1.618,0,0,0-1.616,1.616v26.189a1.619,1.619,0,0,0,1.616,1.619H780.12a1.619,1.619,0,0,0,1.616-1.619V412.273a1.618,1.618,0,0,0-1.616-1.613Z" transform="translate(-631.085 -406.959)" fill="#283e51"/>
        </g>
        <g id="Group_642" data-name="Group 642" transform="translate(16.945 1.85)">
          <rect id="Rectangle_9865" data-name="Rectangle 9865" width="3.701" height="20.248" fill="#283e51"/>
        </g>
        <g id="Group_643" data-name="Group 643" transform="translate(31.189 1.85)">
          <rect id="Rectangle_9866" data-name="Rectangle 9866" width="3.701" height="10.124" fill="#283e51"/>
        </g>
        <g id="Group_644" data-name="Group 644" transform="translate(45.435 1.85)">
          <rect id="Rectangle_9867" data-name="Rectangle 9867" width="3.701" height="10.124" fill="#283e51"/>
        </g>
        <g id="Group_645" data-name="Group 645" transform="translate(59.679 1.85)">
          <rect id="Rectangle_9868" data-name="Rectangle 9868" width="3.701" height="10.124" fill="#283e51"/>
        </g>
        <g id="Group_646" data-name="Group 646" transform="translate(73.924 1.85)">
          <rect id="Rectangle_9869" data-name="Rectangle 9869" width="3.701" height="20.248" fill="#283e51"/>
        </g>
        <g id="Group_647" data-name="Group 647" transform="translate(88.168 1.85)">
          <rect id="Rectangle_9870" data-name="Rectangle 9870" width="3.701" height="10.124" fill="#283e51"/>
        </g>
        <g id="Group_648" data-name="Group 648" transform="translate(102.413 1.85)">
          <rect id="Rectangle_9871" data-name="Rectangle 9871" width="3.701" height="10.124" fill="#283e51"/>
        </g>
        <g id="Group_649" data-name="Group 649" transform="translate(116.658 1.85)">
          <rect id="Rectangle_9872" data-name="Rectangle 9872" width="3.701" height="10.124" fill="#283e51"/>
        </g>
        <g id="Group_650" data-name="Group 650" transform="translate(130.903 1.85)">
          <rect id="Rectangle_9873" data-name="Rectangle 9873" width="3.701" height="20.248" fill="#283e51"/>
        </g>
      </g>
      <g id="Group_659" data-name="Group 659" transform="translate(412.035 140.433)">
        <g id="Group_652" data-name="Group 652" transform="translate(1.85 2.561)">
          <path id="Path_172" data-name="Path 172" d="M785.526,371.151s10.935,10.461,10.935,19.632-10.935,19.634-10.935,19.634-10.932-10.461-10.932-19.634S785.526,371.151,785.526,371.151Z" transform="translate(-774.594 -371.151)" fill="#f5f5f5"/>
        </g>
        <g id="Group_653" data-name="Group 653">
          <path id="Path_173" data-name="Path 173" d="M786.627,414.5l-1.278-1.224c-.471-.449-11.5-11.122-11.5-20.971s11.033-20.517,11.5-20.969l1.278-1.224,1.28,1.224c.469.451,11.5,11.122,11.5,20.969s-11.036,20.522-11.5,20.971Zm0-39.169c-2.771,2.985-9.082,10.493-9.082,16.974s6.311,13.992,9.082,16.977c2.773-2.985,9.084-10.493,9.084-16.977S789.4,378.316,786.627,375.331Z" transform="translate(-773.844 -370.113)" fill="#283e51"/>
        </g>
        <g id="Group_654" data-name="Group 654" transform="translate(10.933 2.561)">
          <rect id="Rectangle_9874" data-name="Rectangle 9874" width="3.701" height="123.298" fill="#283e51"/>
        </g>
        <g id="Group_655" data-name="Group 655" transform="translate(3.104 10.683)">
          <rect id="Rectangle_9875" data-name="Rectangle 9875" width="3.701" height="12.066" transform="matrix(0.722, -0.691, 0.691, 0.722, 0, 2.559)" fill="#283e51"/>
        </g>
        <g id="Group_656" data-name="Group 656" transform="translate(0.476 19.44)">
          <rect id="Rectangle_9876" data-name="Rectangle 9876" width="3.702" height="15.944" transform="translate(0 2.48) rotate(-42.072)" fill="#283e51"/>
        </g>
        <g id="Group_657" data-name="Group 657" transform="translate(11.109 10.683)">
          <rect id="Rectangle_9877" data-name="Rectangle 9877" width="12.065" height="3.701" transform="matrix(0.691, -0.723, 0.723, 0.691, 0, 8.718)" fill="#283e51"/>
        </g>
        <g id="Group_658" data-name="Group 658" transform="translate(11.32 19.441)">
          <rect id="Rectangle_9878" data-name="Rectangle 9878" width="15.944" height="3.702" transform="translate(0 11.831) rotate(-47.904)" fill="#283e51"/>
        </g>
      </g>
      <g id="Group_667" data-name="Group 667" transform="translate(430.539 187.31)">
        <g id="Group_660" data-name="Group 660" transform="translate(1.85 2.561)">
          <path id="Path_174" data-name="Path 174" d="M793.026,390.151s10.935,10.461,10.935,19.632-10.935,19.634-10.935,19.634-10.932-10.461-10.932-19.634S793.026,390.151,793.026,390.151Z" transform="translate(-782.094 -390.151)" fill="#f5f5f5"/>
        </g>
        <g id="Group_661" data-name="Group 661">
          <path id="Path_175" data-name="Path 175" d="M794.127,433.5l-1.278-1.224c-.471-.449-11.5-11.122-11.5-20.971s11.033-20.517,11.5-20.969l1.278-1.224,1.28,1.224c.469.451,11.5,11.122,11.5,20.969s-11.036,20.522-11.5,20.971Zm0-39.169c-2.771,2.985-9.082,10.493-9.082,16.974s6.311,13.991,9.082,16.977c2.773-2.985,9.084-10.493,9.084-16.977S796.9,397.316,794.127,394.331Z" transform="translate(-781.344 -389.113)" fill="#283e51"/>
        </g>
        <g id="Group_662" data-name="Group 662" transform="translate(10.933 2.561)">
          <rect id="Rectangle_9879" data-name="Rectangle 9879" width="3.701" height="77.315" fill="#283e51"/>
        </g>
        <g id="Group_663" data-name="Group 663" transform="translate(3.104 10.683)">
          <rect id="Rectangle_9880" data-name="Rectangle 9880" width="3.701" height="12.066" transform="matrix(0.722, -0.691, 0.691, 0.722, 0, 2.559)" fill="#283e51"/>
        </g>
        <g id="Group_664" data-name="Group 664" transform="translate(0.476 19.44)">
          <rect id="Rectangle_9881" data-name="Rectangle 9881" width="3.702" height="15.944" transform="translate(0 2.48) rotate(-42.072)" fill="#283e51"/>
        </g>
        <g id="Group_665" data-name="Group 665" transform="translate(11.109 10.683)">
          <rect id="Rectangle_9882" data-name="Rectangle 9882" width="12.065" height="3.701" transform="matrix(0.691, -0.723, 0.723, 0.691, 0, 8.718)" fill="#283e51"/>
        </g>
        <g id="Group_666" data-name="Group 666" transform="translate(11.32 19.441)">
          <rect id="Rectangle_9883" data-name="Rectangle 9883" width="15.944" height="3.702" transform="translate(0 11.831) rotate(-47.904)" fill="#283e51"/>
        </g>
      </g>
    </g>
  </g>
</svg>
