<svg xmlns="http://www.w3.org/2000/svg" width="876.503" height="394.823" viewBox="0 0 876.503 394.823">
  <g id="Group_1045" data-name="Group 1045" transform="translate(-165.389 -76.719)">
    <g id="Group_917" data-name="Group 917" transform="translate(165.389 139.156)">
      <path id="Path_256" data-name="Path 256" d="M268.711,91.658l723.3,2.161a31.922,31.922,0,0,1,31.826,31.922h0a31.919,31.919,0,0,1-31.922,31.922H834.775a25.213,25.213,0,0,0-25.21,25.214h0a25.213,25.213,0,0,0,25.21,25.214H936.016a31.2,31.2,0,0,1,31.2,31.2h0a31.205,31.205,0,0,1-31.2,31.2h-187.5v87.679h262.063a31.3,31.3,0,0,1,31.308,31.3h0a31.3,31.3,0,0,1-31.3,31.308l-683.09.125a29.726,29.726,0,0,1-29.732-29.728h0a29.727,29.727,0,0,1,29.728-29.728H482.988V315.372H203.881a38.495,38.495,0,0,1-38.492-38.492h0a38.5,38.5,0,0,1,38.492-38.5H433.04a24.9,24.9,0,0,0,24.9-24.892h0a24.893,24.893,0,0,0-24.9-24.892H399.2a40.951,40.951,0,0,1-40.949-40.949H268.628a28,28,0,0,1-28-28h0A28,28,0,0,1,268.711,91.658Z" transform="translate(-165.389 -91.658)" fill="#f7f7f7"/>
    </g>
    <g id="Group_927" data-name="Group 927" transform="translate(569.714 219.734)">
      <g id="Group_926" data-name="Group 926">
        <g id="Group_918" data-name="Group 918" transform="translate(18.535 3.136)">
          <rect id="Rectangle_10009" data-name="Rectangle 10009" width="323.632" height="232.621" rx="1" fill="#1ea592"/>
        </g>
        <g id="Group_919" data-name="Group 919" transform="translate(55.827 0.002)">
          <rect id="Rectangle_10010" data-name="Rectangle 10010" width="18.172" height="6.269" fill="#283e51"/>
        </g>
        <g id="Group_920" data-name="Group 920" transform="translate(15.401)">
          <path id="Path_257" data-name="Path 257" d="M584.54,349.827H276.993a11.185,11.185,0,0,1-11.176-11.176V122.114a11.188,11.188,0,0,1,11.176-11.176h19.426v6.269H276.993a4.914,4.914,0,0,0-4.907,4.907V338.651a4.911,4.911,0,0,0,4.907,4.907H584.54a4.909,4.909,0,0,0,4.907-4.907h6.269A11.185,11.185,0,0,1,584.54,349.827Z" transform="translate(-265.817 -110.938)" fill="#283e51"/>
        </g>
        <g id="Group_921" data-name="Group 921" transform="translate(189.363)">
          <path id="Path_258" data-name="Path 258" d="M463.378,142.985h-6.269V122.114a4.911,4.911,0,0,0-4.907-4.907H307.441v-6.269H452.2a11.188,11.188,0,0,1,11.176,11.176Z" transform="translate(-307.441 -110.938)" fill="#283e51"/>
        </g>
        <g id="Group_922" data-name="Group 922" transform="translate(34.252 21.439)">
          <rect id="Rectangle_10011" data-name="Rectangle 10011" width="290.443" height="188.77" fill="#fff"/>
        </g>
        <g id="Group_923" data-name="Group 923" transform="translate(3.093 221.971)">
          <path id="Path_259" data-name="Path 259" d="M596.29,190.751H280.4a15.479,15.479,0,0,1-15.28-12.977l-2.253-13.725H409.284l5.6,8.041h40.456l6.056-8.041H615.632l-1.956,11.936A17.615,17.615,0,0,1,596.29,190.751Z" transform="translate(-262.872 -164.049)" fill="#fff"/>
        </g>
        <g id="Group_924" data-name="Group 924" transform="translate(0 221.465)">
          <path id="Path_260" data-name="Path 260" d="M598.643,194.27H282.757a18.545,18.545,0,0,1-18.372-15.606l-2.253-13.721,6.19-1.016,2.248,13.721A12.307,12.307,0,0,0,282.757,188H598.643Z" transform="translate(-262.132 -163.928)" fill="#283e51"/>
        </g>
        <g id="Group_925" data-name="Group 925" transform="translate(188.542 218.837)">
          <path id="Path_261" data-name="Path 261" d="M315.826,177.611h-8.581v-6.269H312.7l6.057-8.042H445.3v6.269H321.883Z" transform="translate(-307.245 -163.299)" fill="#283e51"/>
        </g>
      </g>
    </g>
    <g id="Group_928" data-name="Group 928" transform="translate(569.714 219.734)" opacity="0.3">
      <path id="Path_262" data-name="Path 262" d="M447.922,359.611v.134h6.269V110.938h-2.7v3.135H336.132v-3.135H317.96v3.135h-9.826v-3.135H288.709a11.188,11.188,0,0,0-11.176,11.176v210.8h-9.128l-.083-.506-3.1.506h0l-3.093.51,2.253,13.721a18.5,18.5,0,0,0,8.1,12.471H447.922Z" transform="translate(-262.132 -110.938)" fill="#283e51"/>
    </g>
    <g id="Group_945" data-name="Group 945" transform="translate(477.338 122.241)">
      <g id="Group_944" data-name="Group 944">
        <g id="Group_929" data-name="Group 929" transform="translate(3.135 3.136)">
          <path id="Path_263" data-name="Path 263" d="M510.587,431.392V104.439a16.076,16.076,0,0,0-16.078-16.078H256.861a16.08,16.08,0,0,0-16.082,16.078V431.392Z" transform="translate(-240.779 -88.361)" fill="#17ac9d"/>
        </g>
        <g id="Group_930" data-name="Group 930" transform="translate(22.151 3.136)">
          <path id="Path_264" data-name="Path 264" d="M474.087,431.392V104.439c0-8.881-6.1-16.078-13.633-16.078H258.962c-7.527,0-13.633,7.2-13.633,16.078V431.392Z" transform="translate(-245.329 -88.361)" fill="#fff"/>
        </g>
        <g id="Group_931" data-name="Group 931" transform="translate(3.135 3.136)">
          <path id="Path_265" data-name="Path 265" d="M240.779,130.042V101.881a13.521,13.521,0,0,1,13.52-13.52H497.067a13.518,13.518,0,0,1,13.52,13.52v28.161Z" transform="translate(-240.779 -88.361)" fill="#17ac9d"/>
        </g>
        <g id="Group_932" data-name="Group 932" transform="translate(0 0.001)">
          <path id="Path_266" data-name="Path 266" d="M246.3,242.189h-6.269V104.266a16.674,16.674,0,0,1,16.659-16.655h35.826V93.88H256.688a10.4,10.4,0,0,0-10.39,10.386Z" transform="translate(-240.029 -87.611)" fill="#283e51"/>
        </g>
        <g id="Group_933" data-name="Group 933" transform="translate(99.356 0.001)">
          <path id="Path_267" data-name="Path 267" d="M440.523,433.91h-6.269V104.266A10.393,10.393,0,0,0,423.868,93.88H263.8V87.611H423.868a16.67,16.67,0,0,1,16.655,16.655Z" transform="translate(-263.802 -87.611)" fill="#283e51"/>
        </g>
        <g id="Group_934" data-name="Group 934" transform="translate(65.569)">
          <rect id="Rectangle_10012" data-name="Rectangle 10012" width="18.534" height="6.269" fill="#283e51"/>
        </g>
        <g id="Group_935" data-name="Group 935" transform="translate(3.135 42.414)">
          <rect id="Rectangle_10013" data-name="Rectangle 10013" width="269.808" height="6.269" fill="#283e51"/>
        </g>
        <g id="Group_936" data-name="Group 936" transform="translate(34.121 23.134)">
          <rect id="Rectangle_10014" data-name="Rectangle 10014" width="6.279" height="6.269" fill="#283e51"/>
        </g>
        <g id="Group_937" data-name="Group 937" transform="translate(52.339 23.134)">
          <rect id="Rectangle_10015" data-name="Rectangle 10015" width="6.281" height="6.269" fill="#283e51"/>
        </g>
        <g id="Group_938" data-name="Group 938" transform="translate(70.558 23.134)">
          <rect id="Rectangle_10016" data-name="Rectangle 10016" width="6.282" height="6.269" fill="#283e51"/>
        </g>
        <g id="Group_939" data-name="Group 939" transform="translate(39.28 76.673)">
          <rect id="Rectangle_10017" data-name="Rectangle 10017" width="197.519" height="77.909" fill="#17ac9d"/>
        </g>
        <g id="Group_940" data-name="Group 940" transform="translate(39.3 204.051)">
          <rect id="Rectangle_10018" data-name="Rectangle 10018" width="60.056" height="77.908" fill="#eaeaea"/>
        </g>
        <g id="Group_941" data-name="Group 941" transform="translate(108.032 204.051)">
          <rect id="Rectangle_10019" data-name="Rectangle 10019" width="60.056" height="77.908" fill="#eaeaea"/>
        </g>
        <g id="Group_942" data-name="Group 942" transform="translate(176.763 204.051)">
          <rect id="Rectangle_10020" data-name="Rectangle 10020" width="60.055" height="77.908" fill="#eaeaea"/>
        </g>
        <g id="Group_943" data-name="Group 943" transform="translate(96.067 176.095)">
          <rect id="Rectangle_10021" data-name="Rectangle 10021" width="83.985" height="6.269" fill="#283e51"/>
        </g>
      </g>
    </g>
    <g id="Group_962" data-name="Group 962" transform="translate(774.804 257.119)">
      <g id="Group_954" data-name="Group 954" transform="translate(78.848)">
        <g id="Group_946" data-name="Group 946" transform="translate(58.163 116.478)">
          <rect id="Rectangle_10022" data-name="Rectangle 10022" width="6.269" height="24.097" fill="#283e51"/>
        </g>
        <g id="Group_947" data-name="Group 947" transform="translate(3.135 3.13)">
          <path id="Path_268" data-name="Path 268" d="M388.984,120.632A58.164,58.164,0,1,0,447.149,178.8,58.165,58.165,0,0,0,388.984,120.632Zm0,102.353A44.189,44.189,0,1,1,433.173,178.8,44.188,44.188,0,0,1,388.984,222.985Z" transform="translate(-330.82 -120.632)" fill="#eaeaea"/>
        </g>
        <g id="Group_948" data-name="Group 948">
          <path id="Path_269" data-name="Path 269" d="M391.369,242.477a61.3,61.3,0,1,1,61.3-61.3A61.365,61.365,0,0,1,391.369,242.477Zm0-116.325a55.028,55.028,0,1,0,55.03,55.026A55.088,55.088,0,0,0,391.369,126.152Z" transform="translate(-330.07 -119.883)" fill="#283e51"/>
        </g>
        <g id="Group_949" data-name="Group 949" transform="translate(55.749 21.118)">
          <path id="Path_270" data-name="Path 270" d="M386.49,168.021h-6.269a36.864,36.864,0,0,0-36.812-36.816v-6.269A43.135,43.135,0,0,1,386.49,168.021Z" transform="translate(-343.409 -124.936)" fill="#283e51"/>
        </g>
        <g id="Group_950" data-name="Group 950" transform="translate(49.809 133.476)">
          <rect id="Rectangle_10023" data-name="Rectangle 10023" width="22.978" height="77.025" fill="#17ac9d"/>
        </g>
        <g id="Group_951" data-name="Group 951" transform="translate(46.675 130.342)">
          <path id="Path_271" data-name="Path 271" d="M361.47,234.361H350.249a9.02,9.02,0,0,1-9.011-9.011V151.07h29.247v40.87h-6.269v-34.6H347.507V225.35a2.743,2.743,0,0,0,2.742,2.742H361.47a2.747,2.747,0,0,0,2.746-2.742V214.584h6.269V225.35A9.024,9.024,0,0,1,361.47,234.361Z" transform="translate(-341.238 -151.07)" fill="#283e51"/>
        </g>
        <g id="Group_952" data-name="Group 952" transform="translate(69.652 177.045)">
          <rect id="Rectangle_10024" data-name="Rectangle 10024" width="6.269" height="12.067" fill="#283e51"/>
        </g>
        <g id="Group_953" data-name="Group 953" transform="translate(49.249 146.879)">
          <rect id="Rectangle_10025" data-name="Rectangle 10025" width="24.099" height="6.269" fill="#283e51"/>
        </g>
      </g>
      <g id="Group_955" data-name="Group 955" transform="translate(44.016 18.135)">
        <rect id="Rectangle_10026" data-name="Rectangle 10026" width="36.318" height="6.269" fill="#283e51"/>
      </g>
      <g id="Group_956" data-name="Group 956" transform="translate(44.016 38.109)">
        <rect id="Rectangle_10027" data-name="Rectangle 10027" width="28.827" height="6.269" fill="#283e51"/>
      </g>
      <g id="Group_957" data-name="Group 957" transform="translate(0.469 58.084)">
        <rect id="Rectangle_10028" data-name="Rectangle 10028" width="72.374" height="6.269" fill="#283e51"/>
      </g>
      <g id="Group_958" data-name="Group 958" transform="translate(0 78.058)">
        <rect id="Rectangle_10029" data-name="Rectangle 10029" width="72.843" height="6.269" fill="#283e51"/>
      </g>
      <g id="Group_959" data-name="Group 959" transform="translate(0 98.032)">
        <rect id="Rectangle_10030" data-name="Rectangle 10030" width="80.335" height="6.269" fill="#283e51"/>
      </g>
      <g id="Group_960" data-name="Group 960" transform="translate(0 118.007)">
        <rect id="Rectangle_10031" data-name="Rectangle 10031" width="105.709" height="6.269" fill="#283e51"/>
      </g>
      <g id="Group_961" data-name="Group 961" transform="translate(1.003 12.429)">
        <path id="Path_272" data-name="Path 272" d="M340.3,157.1l-3.18-7.4H322.762l-3.185,7.4h-8.133l14.8-34.246h7.4l14.8,34.246Zm-10.336-24.056-4.309,9.947h8.572Z" transform="translate(-311.444 -122.857)" fill="#283e51"/>
      </g>
    </g>
    <g id="Group_982" data-name="Group 982" transform="translate(616.592 354.452)">
      <g id="Group_964" data-name="Group 964" transform="translate(3.135 15.51)">
        <g id="Group_963" data-name="Group 963">
          <path id="Path_273" data-name="Path 273" d="M274.417,194.8a21.008,21.008,0,0,1-.3-4.576c.013-.368.025-.807.025-1.421a54.12,54.12,0,0,1,15.89-38.362c.372-.372.631-.644.844-.874a20.734,20.734,0,0,1,3.013-2.687l8.873,11.69a7.027,7.027,0,0,0-1.22,1.074c-.284.305-.631.669-1.129,1.17a39.438,39.438,0,0,0-11.6,27.989c0,.79-.017,1.363-.029,1.835a7.354,7.354,0,0,0,.134,1.91Z" transform="translate(-274.099 -146.883)" fill="#1ea592"/>
        </g>
      </g>
      <g id="Group_966" data-name="Group 966" transform="translate(5.41 68.701)">
        <g id="Group_965" data-name="Group 965">
          <path id="Path_274" data-name="Path 274" d="M326.664,202.6a54.23,54.23,0,0,1-52.021-38.818l14.064-4.171a39.989,39.989,0,0,0,1.484,4.142,39.79,39.79,0,0,0,21.072,21.068,39.519,39.519,0,0,0,43.386-8.488,39.438,39.438,0,0,0,8.488-12.584l13.512,5.717A54.208,54.208,0,0,1,326.664,202.6Z" transform="translate(-274.643 -159.61)" fill="#eaeaea"/>
        </g>
      </g>
      <g id="Group_968" data-name="Group 968" transform="translate(31.402 3.197)">
        <g id="Group_967" data-name="Group 967">
          <path id="Path_275" data-name="Path 275" d="M359.978,209.411l-14.356-3.03a39.907,39.907,0,0,0,.853-8.208A39.646,39.646,0,0,0,322.3,161.7a39.939,39.939,0,0,0-30.81,0c-.669.284-1.149.472-1.551.627a6.88,6.88,0,0,0-1.521.765l-7.552-12.58a20.866,20.866,0,0,1,3.732-1.851c.3-.117.669-.259,1.174-.472a54.6,54.6,0,0,1,42.241,0,54.227,54.227,0,0,1,33.138,49.985A54.69,54.69,0,0,1,359.978,209.411Z" transform="translate(-280.862 -143.937)" fill="#17ac9d"/>
        </g>
      </g>
      <g id="Group_970" data-name="Group 970" transform="translate(0 13.109)">
        <g id="Group_969" data-name="Group 969">
          <path id="Path_276" data-name="Path 276" d="M278.286,199.514a4.866,4.866,0,0,1-4.84-4.413,23.008,23.008,0,0,1-.079-3.134c.013-.355.025-.765.025-1.333a57.075,57.075,0,0,1,9.144-31.132,58.328,58.328,0,0,1,7.815-9.6l.485-.5a25.485,25.485,0,0,1,1.948-1.906,4.974,4.974,0,0,1,3.7-1.162,4.88,4.88,0,0,1,3.352,1.889l6.85,9.023a4.864,4.864,0,0,1-.476,6.407l-1.2,1.208a36.323,36.323,0,0,0-10.682,25.774l-.021,1.68a5.834,5.834,0,0,0,.092,1.584l.481,3.1-15.861,2.462A4.807,4.807,0,0,1,278.286,199.514ZM295.8,153.273c-.084.088-.171.18-.259.276l-.731.757a52.21,52.21,0,0,0-6.988,8.563,50.909,50.909,0,0,0-8.162,27.764c0,.66-.013,1.133-.029,1.526-.008.3-.013.581-.017.861l8.43-1.308.017-1.078a42.569,42.569,0,0,1,12.517-30.2l.372-.376Z" transform="translate(-273.349 -146.309)" fill="#283e51"/>
        </g>
      </g>
      <g id="Group_972" data-name="Group 972" transform="translate(2.652 65.917)">
        <g id="Group_971" data-name="Group 971">
          <path id="Path_277" data-name="Path 277" d="M328.762,207.851a57.454,57.454,0,0,1-52.873-35.044c-.619-1.467-1.179-2.967-1.676-4.476a4.575,4.575,0,0,1,.305-3.573,4.66,4.66,0,0,1,2.8-2.3l11.213-3.327a4.606,4.606,0,0,1,5.68,2.967c.293.865.614,1.722.97,2.553A36.686,36.686,0,0,0,321.389,186.2a35.08,35.08,0,0,0,14.732.008A36.76,36.76,0,0,0,361.77,165.94a4.707,4.707,0,0,1,6.106-2.361l10.586,4.476a4.751,4.751,0,0,1,2.478,6.332,57.36,57.36,0,0,1-52.179,33.464Zm-48.034-39.867q.439,1.2.936,2.382a51.154,51.154,0,0,0,92.891,2.846l-7.761-3.281a43.017,43.017,0,0,1-29.339,22.4,41.161,41.161,0,0,1-17.395,0A42.971,42.971,0,0,1,289.4,167.094c-.213-.5-.41-1-.6-1.5Z" transform="translate(-273.983 -158.944)" fill="#283e51"/>
        </g>
      </g>
      <g id="Group_975" data-name="Group 975" transform="translate(28.863)">
        <g id="Group_973" data-name="Group 973">
          <path id="Path_278" data-name="Path 278" d="M360.664,214.681a4.622,4.622,0,0,1-.957-.1l-11.322-2.386a4.685,4.685,0,0,1-3.64-5.391,36.455,36.455,0,0,0-50.106-39.783l-1.789.752a4.693,4.693,0,0,1-5.931-1.86l-6-10a4.685,4.685,0,0,1,1.793-6.537,22.557,22.557,0,0,1,2.666-1.2l.727-.288a61.349,61.349,0,0,1,21.607-4.714l.171,6.265a55.147,55.147,0,0,0-19.4,4.255l-.84.33c-.155.063-.3.117-.439.176l4.38,7.3.159-.067.447-.184a42.959,42.959,0,0,1,33.26,0,42.752,42.752,0,0,1,25.7,45.125l8.242,1.739a51.864,51.864,0,0,0,.552-7.5,51.171,51.171,0,0,0-31.207-47.093l2.441-5.776a57.343,57.343,0,0,1,35.036,52.869,58,58,0,0,1-.915,10.231,4.64,4.64,0,0,1-1.989,3.043A4.746,4.746,0,0,1,360.664,214.681Z" transform="translate(-280.255 -143.172)" fill="#283e51"/>
        </g>
        <g id="Group_974" data-name="Group 974" transform="translate(37.516 0.882)">
          <path id="Path_279" data-name="Path 279" d="M295.513,151.119a53.729,53.729,0,0,0-6.282-1.576l1.166-6.16a60.576,60.576,0,0,1,7,1.76Z" transform="translate(-289.231 -143.383)" fill="#283e51"/>
        </g>
      </g>
      <g id="Group_976" data-name="Group 976" transform="translate(31.8 55.891)">
        <rect id="Rectangle_10032" data-name="Rectangle 10032" width="11.22" height="21.898" fill="#eaeaea"/>
      </g>
      <g id="Group_977" data-name="Group 977" transform="translate(50.801 47.252)">
        <rect id="Rectangle_10033" data-name="Rectangle 10033" width="11.22" height="30.537" fill="#eaeaea"/>
      </g>
      <g id="Group_978" data-name="Group 978" transform="translate(69.802 34.628)">
        <rect id="Rectangle_10034" data-name="Rectangle 10034" width="11.219" height="43.162" fill="#eaeaea"/>
      </g>
      <g id="Group_979" data-name="Group 979" transform="translate(28.664 52.756)">
        <path id="Path_280" data-name="Path 280" d="M297.7,183.964H280.207V155.8H297.7ZM286.476,177.7h4.953V162.064h-4.953Z" transform="translate(-280.207 -155.795)" fill="#283e51"/>
      </g>
      <g id="Group_980" data-name="Group 980" transform="translate(47.668 44.117)">
        <path id="Path_281" data-name="Path 281" d="M302.24,190.536H284.754V153.728H302.24Zm-11.217-6.269h4.948V160h-4.948Z" transform="translate(-284.754 -153.728)" fill="#283e51"/>
      </g>
      <g id="Group_981" data-name="Group 981" transform="translate(66.667 31.492)">
        <path id="Path_282" data-name="Path 282" d="M306.787,200.141H289.3V150.707h17.487Zm-11.218-6.269h4.949v-36.9h-4.949Z" transform="translate(-289.3 -150.707)" fill="#283e51"/>
      </g>
    </g>
    <g id="Group_983" data-name="Group 983" transform="translate(480.472 282.584)" opacity="0.3">
      <path id="Path_283" data-name="Path 283" d="M299.729,311.8h3.139a84.25,84.25,0,0,0-14.268-46.98h9.14v3.135h3.853a13.131,13.131,0,0,0,13.115-13.115V139.091a13.131,13.131,0,0,0-13.115-13.115H271.919v3.135H260.573v-3.135H240.779V311.8h58.95Z" transform="translate(-240.779 -125.976)" fill="#283e51"/>
    </g>
    <g id="Group_1017" data-name="Group 1017" transform="translate(352.491 282.584)">
      <g id="Group_984" data-name="Group 984" transform="translate(3.132 3.135)">
        <rect id="Rectangle_10035" data-name="Rectangle 10035" width="187.283" height="135.706" rx="2.024" fill="#fff"/>
      </g>
      <g id="Group_985" data-name="Group 985" transform="translate(3.13 3.135)">
        <path id="Path_284" data-name="Path 284" d="M210.906,155.66V136.113a9.389,9.389,0,0,1,9.387-9.387H388.805a9.389,9.389,0,0,1,9.387,9.387V155.66Z" transform="translate(-210.906 -126.726)" fill="#eaeaea"/>
      </g>
      <g id="Group_986" data-name="Group 986" transform="translate(3.133 29.439)">
        <rect id="Rectangle_10036" data-name="Rectangle 10036" width="187.282" height="6.269" fill="#283e51"/>
      </g>
      <g id="Group_987" data-name="Group 987" transform="translate(24.64 16.058)">
        <rect id="Rectangle_10037" data-name="Rectangle 10037" width="7.494" height="6.269" fill="#283e51"/>
      </g>
      <g id="Group_988" data-name="Group 988" transform="translate(41.988 16.058)">
        <rect id="Rectangle_10038" data-name="Rectangle 10038" width="7.496" height="6.269" fill="#283e51"/>
      </g>
      <g id="Group_989" data-name="Group 989" transform="translate(59.338 16.058)">
        <rect id="Rectangle_10039" data-name="Rectangle 10039" width="7.494" height="6.269" fill="#283e51"/>
      </g>
      <g id="Group_990" data-name="Group 990" transform="translate(150.763)">
        <path id="Path_285" data-name="Path 285" d="M275.9,267.954H272.05v-6.269H275.9a6.855,6.855,0,0,0,6.846-6.846V139.091a6.855,6.855,0,0,0-6.846-6.846H246.23v-6.269H275.9a13.131,13.131,0,0,1,13.115,13.115V254.839A13.131,13.131,0,0,1,275.9,267.954Z" transform="translate(-246.23 -125.976)" fill="#283e51"/>
      </g>
      <g id="Group_991" data-name="Group 991" transform="translate(115.751)">
        <rect id="Rectangle_10040" data-name="Rectangle 10040" width="23.666" height="6.269" fill="#283e51"/>
      </g>
      <g id="Group_992" data-name="Group 992">
        <path id="Path_286" data-name="Path 286" d="M226.21,267.954h-2.942a13.128,13.128,0,0,1-13.111-13.115V139.091a13.128,13.128,0,0,1,13.111-13.115h97.985v6.269H223.268a6.851,6.851,0,0,0-6.842,6.846V254.839a6.851,6.851,0,0,0,6.842,6.846h2.942Z" transform="translate(-210.157 -125.976)" fill="#283e51"/>
      </g>
      <g id="Group_993" data-name="Group 993" transform="translate(15.326 104.2)">
        <path id="Path_287" data-name="Path 287" d="M377.07,232.531a81.623,81.623,0,0,0-163.246,0Z" transform="translate(-213.824 -150.908)" fill="#1ea592"/>
      </g>
      <g id="Group_994" data-name="Group 994" transform="translate(12.191 101.066)">
        <path id="Path_288" data-name="Path 288" d="M382.594,234.916h-6.269a78.491,78.491,0,0,0-156.981,0h-6.269a84.76,84.76,0,0,1,169.52,0Z" transform="translate(-213.074 -150.158)" fill="#283e51"/>
      </g>
      <g id="Group_995" data-name="Group 995" transform="translate(27.839 116.713)">
        <path id="Path_289" data-name="Path 289" d="M355.038,223.012a69.11,69.11,0,0,0-138.22,0Z" transform="translate(-216.818 -153.902)" fill="#eaeaea"/>
      </g>
      <g id="Group_996" data-name="Group 996" transform="translate(59.33 148.205)">
        <path id="Path_290" data-name="Path 290" d="M299.59,199.056a37.619,37.619,0,1,0-75.237,0Z" transform="translate(-224.353 -161.437)" fill="#fff"/>
      </g>
      <g id="Group_997" data-name="Group 997" transform="translate(88.373 177.247)">
        <path id="Path_291" data-name="Path 291" d="M248.454,176.962a8.576,8.576,0,0,0-17.152,0Z" transform="translate(-231.302 -168.386)" fill="#1ea592"/>
      </g>
      <g id="Group_998" data-name="Group 998" transform="translate(24.704 113.579)">
        <path id="Path_292" data-name="Path 292" d="M360.557,225.4h-6.269a65.976,65.976,0,0,0-131.951,0h-6.269a72.245,72.245,0,0,1,144.489,0Z" transform="translate(-216.068 -153.152)" fill="#283e51"/>
      </g>
      <g id="Group_999" data-name="Group 999" transform="translate(93.651 115.608)">
        <rect id="Rectangle_10041" data-name="Rectangle 10041" width="13.225" height="6.27" transform="translate(0 13.224) rotate(-89.293)" fill="#283e51"/>
      </g>
      <g id="Group_1000" data-name="Group 1000" transform="translate(119.5 123.624)">
        <rect id="Rectangle_10042" data-name="Rectangle 10042" width="12.744" height="6.272" transform="translate(0 10.956) rotate(-59.28)" fill="#283e51"/>
      </g>
      <g id="Group_1001" data-name="Group 1001" transform="translate(143.177 148.554)">
        <rect id="Rectangle_10043" data-name="Rectangle 10043" width="13.87" height="6.269" transform="translate(0 6.781) rotate(-29.268)" fill="#283e51"/>
      </g>
      <g id="Group_1002" data-name="Group 1002" transform="translate(35.54 148.491)">
        <rect id="Rectangle_10044" data-name="Rectangle 10044" width="6.27" height="13.871" transform="translate(0 5.387) rotate(-59.212)" fill="#283e51"/>
      </g>
      <g id="Group_1003" data-name="Group 1003" transform="translate(62.547 123.642)">
        <rect id="Rectangle_10045" data-name="Rectangle 10045" width="6.269" height="12.746" transform="matrix(0.873, -0.488, 0.488, 0.873, 0, 3.058)" fill="#283e51"/>
      </g>
      <g id="Group_1004" data-name="Group 1004" transform="translate(97.031 150.43)">
        <path id="Path_293" data-name="Path 293" d="M233.374,190.868l31.314-28.9,1.731,1.715-28.59,31.6Z" transform="translate(-233.374 -161.969)" fill="#1ea592"/>
      </g>
      <g id="Group_1008" data-name="Group 1008" transform="translate(77.109 75.998)">
        <g id="Group_1005" data-name="Group 1005" transform="translate(16.704 13.055)">
          <rect id="Rectangle_10046" data-name="Rectangle 10046" width="6.269" height="15.146" fill="#283e51"/>
        </g>
        <g id="Group_1006" data-name="Group 1006" transform="translate(3.134 3.132)">
          <rect id="Rectangle_10047" data-name="Rectangle 10047" width="33.061" height="16.327" rx="0.803" fill="#1ea592"/>
        </g>
        <g id="Group_1007" data-name="Group 1007">
          <path id="Path_294" data-name="Path 294" d="M261.444,166.754H235.1a6.5,6.5,0,0,1-6.491-6.491v-9.617a6.5,6.5,0,0,1,6.491-6.486h26.347a6.493,6.493,0,0,1,6.491,6.486v9.617A6.5,6.5,0,0,1,261.444,166.754ZM235.1,150.429l-.222,9.834,26.568.222a.22.22,0,0,0,.221-.222v-9.617Z" transform="translate(-228.607 -144.16)" fill="#283e51"/>
        </g>
      </g>
      <g id="Group_1012" data-name="Group 1012" transform="translate(131.238 90.031)">
        <g id="Group_1009" data-name="Group 1009" transform="translate(6.942 13.357)">
          <rect id="Rectangle_10048" data-name="Rectangle 10048" width="11.635" height="6.268" transform="translate(0 10.076) rotate(-59.995)" fill="#283e51"/>
        </g>
        <g id="Group_1010" data-name="Group 1010" transform="translate(1.903 1.909)">
          <rect id="Rectangle_10049" data-name="Rectangle 10049" width="25.394" height="12.54" rx="0.803" transform="translate(6.272 0) rotate(30.01)" fill="#1ea592"/>
        </g>
        <g id="Group_1011" data-name="Group 1011">
          <path id="Path_295" data-name="Path 295" d="M264.213,174.89a6.466,6.466,0,0,1-3.239-.869L244.8,164.68a6.5,6.5,0,0,1-2.374-8.869l2.917-5.045a6.486,6.486,0,0,1,8.869-2.374l16.17,9.341a6.5,6.5,0,0,1,2.378,8.869l-2.917,5.045A6.486,6.486,0,0,1,264.213,174.89Zm-.1-6.3a.223.223,0,0,0,.3-.079l2.917-5.044-16.258-9.646-3.218,5.124Z" transform="translate(-241.558 -147.518)" fill="#283e51"/>
        </g>
      </g>
      <g id="Group_1016" data-name="Group 1016" transform="translate(29.34 90.038)">
        <g id="Group_1013" data-name="Group 1013" transform="translate(13.885 13.351)">
          <rect id="Rectangle_10050" data-name="Rectangle 10050" width="6.268" height="11.635" transform="matrix(0.866, -0.5, 0.5, 0.866, 0, 3.136)" fill="#283e51"/>
        </g>
        <g id="Group_1014" data-name="Group 1014" transform="translate(1.91 1.902)">
          <rect id="Rectangle_10051" data-name="Rectangle 10051" width="25.394" height="12.541" rx="0.803" transform="matrix(-0.866, 0.5, -0.5, -0.866, 28.261, 10.859)" fill="#1ea592"/>
        </g>
        <g id="Group_1015" data-name="Group 1015">
          <path id="Path_296" data-name="Path 296" d="M226.6,174.889a6.49,6.49,0,0,1-5.63-3.247L218.05,166.6a6.5,6.5,0,0,1,2.374-8.869l16.178-9.341a6.5,6.5,0,0,1,8.864,2.37l2.917,5.049a6.483,6.483,0,0,1-2.37,8.864l-16.183,9.345A6.447,6.447,0,0,1,226.6,174.889ZM240.042,153.9l-16.483,9.262,2.838,5.35.3.079,16.178-9.341Z" transform="translate(-217.177 -147.519)" fill="#283e51"/>
        </g>
      </g>
    </g>
    <g id="Group_1018" data-name="Group 1018" transform="translate(296.8 465.272)">
      <rect id="Rectangle_10052" data-name="Rectangle 10052" width="684.673" height="6.269" fill="#283e51"/>
    </g>
    <g id="Group_1019" data-name="Group 1019" transform="translate(277.732 465.272)">
      <rect id="Rectangle_10053" data-name="Rectangle 10053" width="11.449" height="6.269" fill="#283e51"/>
    </g>
    <g id="Group_1020" data-name="Group 1020" transform="translate(988.003 465.272)">
      <rect id="Rectangle_10054" data-name="Rectangle 10054" width="25.282" height="6.269" transform="translate(0)" fill="#283e51"/>
    </g>
    <g id="Group_1023" data-name="Group 1023" transform="translate(802.184 124.302)">
      <g id="Group_1021" data-name="Group 1021" transform="translate(0 8.931)">
        <path id="Path_297" data-name="Path 297" d="M338.752,96.51H320.89a3.135,3.135,0,0,1,0-6.269h17.863a3.135,3.135,0,1,1,0,6.269Z" transform="translate(-317.755 -90.241)" fill="#283e51"/>
      </g>
      <g id="Group_1022" data-name="Group 1022" transform="translate(8.927)">
        <path id="Path_298" data-name="Path 298" d="M323.026,112.236a3.136,3.136,0,0,1-3.134-3.135V91.239a3.135,3.135,0,1,1,6.269,0V109.1A3.133,3.133,0,0,1,323.026,112.236Z" transform="translate(-319.891 -88.104)" fill="#283e51"/>
      </g>
    </g>
    <g id="Group_1026" data-name="Group 1026" transform="translate(265.669 243.469)">
      <g id="Group_1024" data-name="Group 1024" transform="translate(0 8.931)">
        <path id="Path_299" data-name="Path 299" d="M210.38,125.023H192.518a3.135,3.135,0,0,1,0-6.269H210.38a3.135,3.135,0,1,1,0,6.269Z" transform="translate(-189.383 -118.754)" fill="#283e51"/>
      </g>
      <g id="Group_1025" data-name="Group 1025" transform="translate(8.927)">
        <path id="Path_300" data-name="Path 300" d="M194.654,140.749a3.136,3.136,0,0,1-3.135-3.135V119.752a3.135,3.135,0,0,1,6.269,0v17.863A3.136,3.136,0,0,1,194.654,140.749Z" transform="translate(-191.519 -116.617)" fill="#283e51"/>
      </g>
    </g>
    <g id="Group_1029" data-name="Group 1029" transform="translate(417.749 87.621)">
      <g id="Group_1027" data-name="Group 1027">
        <path id="Path_301" data-name="Path 301" d="M228.9,98.225a3.132,3.132,0,0,1-2.215-5.35l12.63-12.63a3.136,3.136,0,0,1,4.434,4.434l-12.63,12.63A3.14,3.14,0,0,1,228.9,98.225Z" transform="translate(-225.771 -79.327)" fill="#283e51"/>
      </g>
      <g id="Group_1028" data-name="Group 1028">
        <path id="Path_302" data-name="Path 302" d="M241.535,98.225a3.13,3.13,0,0,1-2.215-.915L226.69,84.68a3.136,3.136,0,1,1,4.434-4.434l12.63,12.63a3.132,3.132,0,0,1-2.219,5.35Z" transform="translate(-225.771 -79.327)" fill="#283e51"/>
      </g>
    </g>
    <g id="Group_1032" data-name="Group 1032" transform="translate(991.197 352.263)">
      <g id="Group_1030" data-name="Group 1030" transform="translate(0)">
        <path id="Path_303" data-name="Path 303" d="M366.114,161.546a3.132,3.132,0,0,1-2.215-5.35l12.63-12.63a3.134,3.134,0,1,1,4.43,4.434l-12.63,12.63A3.123,3.123,0,0,1,366.114,161.546Z" transform="translate(-362.98 -142.648)" fill="#283e51"/>
      </g>
      <g id="Group_1031" data-name="Group 1031" transform="translate(0)">
        <path id="Path_304" data-name="Path 304" d="M378.744,161.546a3.123,3.123,0,0,1-2.215-.915L363.9,148a3.134,3.134,0,0,1,4.43-4.434l12.63,12.63a3.132,3.132,0,0,1-2.215,5.35Z" transform="translate(-362.98 -142.648)" fill="#283e51"/>
      </g>
    </g>
    <g id="Group_1033" data-name="Group 1033" transform="translate(463.412 93.936)">
      <rect id="Rectangle_10055" data-name="Rectangle 10055" width="72.702" height="6.269" fill="#283e51"/>
    </g>
    <g id="Group_1034" data-name="Group 1034" transform="translate(520.954 76.719)">
      <rect id="Rectangle_10056" data-name="Rectangle 10056" width="193.202" height="6.269" fill="#283e51"/>
    </g>
    <g id="Group_1035" data-name="Group 1035" transform="translate(250.399 384.405)">
      <rect id="Rectangle_10057" data-name="Rectangle 10057" width="90.763" height="6.269" fill="#283e51"/>
    </g>
    <g id="Group_1036" data-name="Group 1036" transform="translate(919.293 219.736)">
      <rect id="Rectangle_10058" data-name="Rectangle 10058" width="72.994" height="6.269" transform="translate(0)" fill="#283e51"/>
    </g>
    <g id="Group_1037" data-name="Group 1037" transform="translate(1000.646 219.736)">
      <rect id="Rectangle_10059" data-name="Rectangle 10059" width="12.64" height="6.269" transform="translate(0)" fill="#283e51"/>
    </g>
    <g id="Group_1038" data-name="Group 1038" transform="translate(542.384 93.936)">
      <rect id="Rectangle_10060" data-name="Rectangle 10060" width="14.922" height="6.269" fill="#283e51"/>
    </g>
    <g id="Group_1039" data-name="Group 1039" transform="translate(308.676 252.399)">
      <rect id="Rectangle_10061" data-name="Rectangle 10061" width="72.704" height="6.269" fill="#283e51"/>
    </g>
    <g id="Group_1040" data-name="Group 1040" transform="translate(387.649 252.399)">
      <rect id="Rectangle_10062" data-name="Rectangle 10062" width="14.922" height="6.269" fill="#283e51"/>
    </g>
    <g id="Group_1041" data-name="Group 1041" transform="translate(766.065 99.648)">
      <path id="Path_305" data-name="Path 305" d="M318.082,86.689a4.484,4.484,0,1,1-4.485-4.484A4.485,4.485,0,0,1,318.082,86.689Z" transform="translate(-309.113 -82.205)" fill="#283e51"/>
    </g>
    <g id="Group_1042" data-name="Group 1042" transform="translate(327.988 144.025)">
      <path id="Path_306" data-name="Path 306" d="M213.263,97.308a4.484,4.484,0,1,1-4.484-4.484A4.488,4.488,0,0,1,213.263,97.308Z" transform="translate(-204.294 -92.823)" fill="#283e51"/>
    </g>
    <g id="Group_1043" data-name="Group 1043" transform="translate(852.303 194.428)">
      <path id="Path_307" data-name="Path 307" d="M338.716,109.367a4.484,4.484,0,1,1-4.484-4.484A4.485,4.485,0,0,1,338.716,109.367Z" transform="translate(-329.747 -104.883)" fill="#283e51"/>
    </g>
    <g id="Group_1044" data-name="Group 1044" transform="translate(987.802 276.891)">
      <path id="Path_308" data-name="Path 308" d="M371.137,129.1a4.484,4.484,0,1,1-4.484-4.484A4.484,4.484,0,0,1,371.137,129.1Z" transform="translate(-362.168 -124.614)" fill="#283e51"/>
    </g>
  </g>
</svg>
