<svg xmlns="http://www.w3.org/2000/svg" width="538.694" height="241.434" viewBox="0 0 538.694 241.434">
  <g id="Group_1516" data-name="Group 1516" transform="translate(-610.389 -73.95)">
    <g id="web_design" data-name="web design" transform="translate(610.389 73.95)">
      <g id="Group_1515" data-name="Group 1515">
        <g id="Group_1378" data-name="Group 1378" transform="translate(0 32.151)">
          <path id="Path_889" data-name="Path 889" d="M308.109,101.307h0a14.774,14.774,0,0,0,14.776,14.776h66.758A14.554,14.554,0,0,1,404.2,130.637h0a14.554,14.554,0,0,1-14.554,14.554H353.715a15.827,15.827,0,0,0-15.826,15.826h0a15.828,15.828,0,0,0,15.778,15.826l131.182.4,2.308,37.638-205.2-1.122a17.549,17.549,0,0,0-17.641,17.546h0a17.546,17.546,0,0,0,17.546,17.546h45.36A17.68,17.68,0,0,1,344.9,266.531V293.9l394.292-.509V274.205a19.774,19.774,0,0,0-19.652-19.775l-60.346-.371V207.126H785.111a17.9,17.9,0,0,0,17.9-17.894h0a17.9,17.9,0,0,0-17.9-17.9H725.777a27.851,27.851,0,0,0-27.853-27.85h-37.87V116.08l105.573,0A14.774,14.774,0,0,0,780.4,101.307h0a14.775,14.775,0,0,0-14.776-14.776H322.885A14.775,14.775,0,0,0,308.109,101.307Z" transform="translate(-264.313 -86.531)" fill="#f5f5f5"/>
        </g>
        <g id="Group_1381" data-name="Group 1381" transform="translate(53.239 73.921)">
          <g id="Group_1379" data-name="Group 1379" transform="translate(0 5.461)">
            <path id="Path_890" data-name="Path 890" d="M297.985,108.846H287.063a1.917,1.917,0,1,1,0-3.833h10.922a1.917,1.917,0,1,1,0,3.833Z" transform="translate(-285.146 -105.013)" fill="#283e51"/>
          </g>
          <g id="Group_1380" data-name="Group 1380" transform="translate(5.461)">
            <path id="Path_891" data-name="Path 891" d="M289.2,117.632a1.917,1.917,0,0,1-1.917-1.917V104.793a1.917,1.917,0,0,1,3.833,0v10.922A1.917,1.917,0,0,1,289.2,117.632Z" transform="translate(-287.283 -102.876)" fill="#283e51"/>
          </g>
        </g>
        <g id="Group_1384" data-name="Group 1384" transform="translate(385.141)">
          <g id="Group_1382" data-name="Group 1382" transform="translate(0 5.461)">
            <path id="Path_892" data-name="Path 892" d="M427.864,79.92H416.94a1.917,1.917,0,0,1,0-3.833h10.925a1.917,1.917,0,0,1,0,3.833Z" transform="translate(-415.023 -76.087)" fill="#283e51"/>
          </g>
          <g id="Group_1383" data-name="Group 1383" transform="translate(5.464)">
            <path id="Path_893" data-name="Path 893" d="M419.078,88.706a1.917,1.917,0,0,1-1.917-1.917V75.867a1.917,1.917,0,0,1,3.833,0V86.789A1.917,1.917,0,0,1,419.078,88.706Z" transform="translate(-417.161 -73.95)" fill="#283e51"/>
          </g>
        </g>
        <g id="Group_1387" data-name="Group 1387" transform="translate(260.842 26.374)">
          <g id="Group_1385" data-name="Group 1385">
            <path id="Path_894" data-name="Path 894" d="M368.3,95.826a1.915,1.915,0,0,1-1.357-3.271l7.725-7.723a1.915,1.915,0,0,1,2.709,2.709l-7.723,7.725A1.909,1.909,0,0,1,368.3,95.826Z" transform="translate(-366.383 -84.27)" fill="#283e51"/>
          </g>
          <g id="Group_1386" data-name="Group 1386">
            <path id="Path_895" data-name="Path 895" d="M376.025,95.826a1.909,1.909,0,0,1-1.354-.56l-7.725-7.725a1.916,1.916,0,0,1,2.711-2.709l7.723,7.723a1.915,1.915,0,0,1-1.354,3.271Z" transform="translate(-366.383 -84.27)" fill="#283e51"/>
          </g>
        </g>
        <g id="Group_1390" data-name="Group 1390" transform="translate(513.981 92.039)">
          <g id="Group_1388" data-name="Group 1388">
            <path id="Path_896" data-name="Path 896" d="M467.355,121.522A1.915,1.915,0,0,1,466,118.251l7.725-7.725a1.916,1.916,0,0,1,2.709,2.711l-7.723,7.725A1.915,1.915,0,0,1,467.355,121.522Z" transform="translate(-465.439 -109.966)" fill="#283e51"/>
          </g>
          <g id="Group_1389" data-name="Group 1389">
            <path id="Path_897" data-name="Path 897" d="M475.081,121.522a1.905,1.905,0,0,1-1.354-.56L466,113.237a1.917,1.917,0,1,1,2.711-2.711l7.723,7.725a1.915,1.915,0,0,1-1.354,3.271Z" transform="translate(-465.439 -109.966)" fill="#283e51"/>
          </g>
        </g>
        <g id="Group_1391" data-name="Group 1391" transform="translate(300.723 30.235)">
          <rect id="Rectangle_10326" data-name="Rectangle 10326" width="55.752" height="3.833" fill="#283e51"/>
        </g>
        <g id="Group_1392" data-name="Group 1392" transform="translate(112.007 30.235)">
          <rect id="Rectangle_10327" data-name="Rectangle 10327" width="55.752" height="3.833" fill="#283e51"/>
        </g>
        <g id="Group_1393" data-name="Group 1393" transform="translate(186.381 14.186)">
          <rect id="Rectangle_10328" data-name="Rectangle 10328" width="104.254" height="3.833" fill="#283e51"/>
        </g>
        <g id="Group_1394" data-name="Group 1394" transform="translate(15.891 123.572)">
          <rect id="Rectangle_10329" data-name="Rectangle 10329" width="65.41" height="3.833" fill="#283e51"/>
        </g>
        <g id="Group_1395" data-name="Group 1395" transform="translate(454.56 165.737)">
          <rect id="Rectangle_10330" data-name="Rectangle 10330" width="48.817" height="3.833" fill="#283e51"/>
        </g>
        <g id="Group_1396" data-name="Group 1396" transform="translate(509.239 165.737)">
          <rect id="Rectangle_10331" data-name="Rectangle 10331" width="6.658" height="3.833" fill="#283e51"/>
        </g>
        <g id="Group_1397" data-name="Group 1397" transform="translate(285.614 30.235)">
          <rect id="Rectangle_10332" data-name="Rectangle 10332" width="9.998" height="3.833" fill="#283e51"/>
        </g>
        <g id="Group_1398" data-name="Group 1398" transform="translate(481.182 81.299)">
          <path id="Path_898" data-name="Path 898" d="M458.089,108.505a2.742,2.742,0,1,1-2.742-2.742A2.74,2.74,0,0,1,458.089,108.505Z" transform="translate(-452.605 -105.763)" fill="#283e51"/>
        </g>
        <g id="Group_1399" data-name="Group 1399" transform="translate(160.954 47.213)">
          <path id="Path_899" data-name="Path 899" d="M335.377,96.468a4.04,4.04,0,1,1-4.04-4.043A4.041,4.041,0,0,1,335.377,96.468Z" transform="translate(-327.296 -92.425)" fill="#283e51"/>
        </g>
        <g id="Group_1400" data-name="Group 1400" transform="translate(62.536 144.808)">
          <path id="Path_900" data-name="Path 900" d="M294.266,133.357a2.741,2.741,0,1,1-2.742-2.742A2.741,2.741,0,0,1,294.266,133.357Z" transform="translate(-288.784 -130.615)" fill="#283e51"/>
        </g>
        <g id="Group_1510" data-name="Group 1510" transform="translate(86.622 30.235)">
          <g id="Group_1415" data-name="Group 1415" transform="translate(109.401 18.854)">
            <g id="Group_1401" data-name="Group 1401" transform="translate(1.918 1.917)">
              <path id="Rectangle_10333" data-name="Rectangle 10333" d="M1.973,0H215.8a1.973,1.973,0,0,1,1.973,1.973v127.56a0,0,0,0,1,0,0H0a0,0,0,0,1,0,0V1.973A1.973,1.973,0,0,1,1.973,0Z" fill="#17ac9d"/>
            </g>
            <g id="Group_1402" data-name="Group 1402" transform="translate(42.457 0.001)">
              <rect id="Rectangle_10334" data-name="Rectangle 10334" width="134.609" height="3.833" fill="#283e51"/>
            </g>
            <g id="Group_1403" data-name="Group 1403" transform="translate(29.824 0.001)">
              <rect id="Rectangle_10335" data-name="Rectangle 10335" width="9.126" height="3.833" fill="#283e51"/>
            </g>
            <g id="Group_1404" data-name="Group 1404">
              <path id="Path_901" data-name="Path 901" d="M560.711,226.526H341.019v-120.3a13.083,13.083,0,0,1,13.069-13.069h11.055v3.833H354.088a9.247,9.247,0,0,0-9.236,9.236V222.693H560.711Z" transform="translate(-341.019 -93.159)" fill="#283e51"/>
            </g>
            <g id="Group_1405" data-name="Group 1405" transform="translate(13.735 14.583)">
              <rect id="Rectangle_10336" data-name="Rectangle 10336" width="194.383" height="102.31" fill="#fff"/>
            </g>
            <g id="Group_1406" data-name="Group 1406" transform="translate(78 151.082)">
              <rect id="Rectangle_10337" data-name="Rectangle 10337" width="65.611" height="38.84" fill="#fff"/>
            </g>
            <g id="Group_1407" data-name="Group 1407" transform="translate(78 151.082)">
              <rect id="Rectangle_10338" data-name="Rectangle 10338" width="65.611" height="19.42" fill="#f5f5f5"/>
            </g>
            <g id="Group_1408" data-name="Group 1408" transform="translate(76.083 149.165)">
              <path id="Path_902" data-name="Path 902" d="M440.236,190.718H436.4V155.362H374.624v35.355h-3.833V151.529h69.445Z" transform="translate(-370.791 -151.529)" fill="#283e51"/>
            </g>
            <g id="Group_1409" data-name="Group 1409" transform="translate(1.918 126.693)">
              <path id="Rectangle_10339" data-name="Rectangle 10339" d="M0,0H217.775a0,0,0,0,1,0,0V23.822a5.588,5.588,0,0,1-5.588,5.588H5.588A5.588,5.588,0,0,1,0,23.822V0A0,0,0,0,1,0,0Z" fill="#fff"/>
            </g>
            <g id="Group_1410" data-name="Group 1410" transform="translate(0 124.775)">
              <path id="Path_903" data-name="Path 903" d="M548.5,175.23H354.236a13.233,13.233,0,0,1-13.217-13.217V141.985H548.5v3.833H344.852v16.194a9.4,9.4,0,0,0,9.384,9.384H548.5Z" transform="translate(-341.019 -141.985)" fill="#283e51"/>
            </g>
            <g id="Group_1411" data-name="Group 1411" transform="translate(27.475 21.818)">
              <rect id="Rectangle_10340" data-name="Rectangle 10340" width="167.516" height="36.396" fill="#f5f5f5"/>
            </g>
            <g id="Group_1412" data-name="Group 1412" transform="translate(88.94 63.699)">
              <rect id="Rectangle_10341" data-name="Rectangle 10341" width="44.587" height="46.921" fill="#f5f5f5"/>
            </g>
            <g id="Group_1413" data-name="Group 1413" transform="translate(150.404 63.582)">
              <rect id="Rectangle_10342" data-name="Rectangle 10342" width="44.587" height="46.922" fill="#f5f5f5"/>
            </g>
            <g id="Group_1414" data-name="Group 1414" transform="translate(217.262 43.802)">
              <rect id="Rectangle_10343" data-name="Rectangle 10343" width="3.833" height="22.905" fill="#283e51"/>
            </g>
          </g>
          <g id="Group_1416" data-name="Group 1416" transform="translate(109.401 74.973)" opacity="0.3">
            <path id="Path_904" data-name="Path 904" d="M428.029,121.357a6.243,6.243,0,0,0-6.235-6.238H341.019V203.8a13.233,13.233,0,0,0,13.217,13.217H417.1v30.334h1.917v1.567h10.334a11.3,11.3,0,0,0,4.95-7.618l1.418-8.638h-7.692Z" transform="translate(-341.019 -115.119)" fill="#0565a2"/>
          </g>
          <g id="Group_1469" data-name="Group 1469" transform="translate(0 51.886)">
            <g id="Group_1417" data-name="Group 1417" transform="translate(15.551 25.003)">
              <rect id="Rectangle_10344" data-name="Rectangle 10344" width="173.833" height="124.948" rx="1" fill="#17ac9d"/>
            </g>
            <g id="Group_1418" data-name="Group 1418" transform="translate(13.636 72.186)">
              <path id="Path_905" data-name="Path 905" d="M309.778,214.015a6.243,6.243,0,0,1-6.233-6.235V134.332h3.833V207.78a2.4,2.4,0,0,0,2.4,2.4Z" transform="translate(-303.545 -134.332)" fill="#283e51"/>
            </g>
            <g id="Group_1419" data-name="Group 1419" transform="translate(93.46 23.087)">
              <path id="Path_906" data-name="Path 906" d="M432.621,234.934h-3.833V121.357a2.406,2.406,0,0,0-2.4-2.4h-91.6v-3.833h91.6a6.243,6.243,0,0,1,6.235,6.238Z" transform="translate(-334.781 -115.119)" fill="#283e51"/>
            </g>
            <g id="Group_1420" data-name="Group 1420" transform="translate(23.993 34.835)">
              <rect id="Rectangle_10345" data-name="Rectangle 10345" width="156.007" height="101.394" fill="#283e51"/>
            </g>
            <g id="Group_1421" data-name="Group 1421" transform="translate(7.258 142.546)">
              <path id="Path_907" data-name="Path 907" d="M480.139,176.207H310.463a8.314,8.314,0,0,1-8.206-6.969l-1.209-7.373H379.69l3.01,4.321H404.43l3.251-4.321h82.847l-1.053,6.412A9.459,9.459,0,0,1,480.139,176.207Z" transform="translate(-301.049 -161.865)" fill="#fff"/>
            </g>
            <g id="Group_1422" data-name="Group 1422" transform="translate(5.001 140.63)">
              <path id="Path_908" data-name="Path 908" d="M481.513,179.29H311.837a10.2,10.2,0,0,1-10.1-8.576l-1.574-9.6h81.9l3.01,4.321h19.772l3.251-4.321h86.059l-1.418,8.64A11.334,11.334,0,0,1,481.513,179.29ZM304.679,164.948l.846,5.144a6.372,6.372,0,0,0,6.312,5.364H481.513a7.513,7.513,0,0,0,7.444-6.322l.687-4.186H410.009l-3.251,4.321H383.072l-3.008-4.321Z" transform="translate(-300.166 -161.115)" fill="#283e51"/>
            </g>
            <g id="Group_1458" data-name="Group 1458" transform="translate(32.669 41.526)">
              <g id="Group_1423" data-name="Group 1423" transform="translate(11.853 3.41)">
                <rect id="Rectangle_10346" data-name="Rectangle 10346" width="17.479" height="2.289" fill="#fff"/>
              </g>
              <g id="Group_1424" data-name="Group 1424" transform="translate(20.593 11.228)">
                <rect id="Rectangle_10347" data-name="Rectangle 10347" width="12.04" height="2.289" fill="#fff"/>
              </g>
              <g id="Group_1425" data-name="Group 1425" transform="translate(59.26 11.228)">
                <rect id="Rectangle_10348" data-name="Rectangle 10348" width="83.97" height="2.289" fill="#fff"/>
              </g>
              <g id="Group_1426" data-name="Group 1426" transform="translate(40.919 11.228)">
                <rect id="Rectangle_10349" data-name="Rectangle 10349" width="13.545" height="2.289" transform="translate(13.545 2.289) rotate(180)" fill="#fff"/>
              </g>
              <g id="Group_1427" data-name="Group 1427" transform="translate(24.691 17.752)">
                <rect id="Rectangle_10350" data-name="Rectangle 10350" width="23.992" height="2.288" fill="#fff"/>
              </g>
              <g id="Group_1428" data-name="Group 1428" transform="translate(34.409 26.967)">
                <rect id="Rectangle_10351" data-name="Rectangle 10351" width="30.446" height="2.288" fill="#fff"/>
              </g>
              <g id="Group_1429" data-name="Group 1429" transform="translate(11.853 35.637)">
                <rect id="Rectangle_10352" data-name="Rectangle 10352" width="33.27" height="2.289" fill="#fff"/>
              </g>
              <g id="Group_1430" data-name="Group 1430" transform="translate(48.683 35.637)">
                <rect id="Rectangle_10353" data-name="Rectangle 10353" width="24.035" height="2.289" transform="translate(24.035 2.289) rotate(180)" fill="#fff"/>
              </g>
              <g id="Group_1431" data-name="Group 1431" transform="translate(20.593 44.307)">
                <rect id="Rectangle_10354" data-name="Rectangle 10354" width="44.612" height="2.289" fill="#fff"/>
              </g>
              <g id="Group_1432" data-name="Group 1432" transform="translate(83.424 44.307)">
                <rect id="Rectangle_10355" data-name="Rectangle 10355" width="29.66" height="2.289" transform="translate(29.66 2.289) rotate(180)" fill="#fff"/>
              </g>
              <g id="Group_1433" data-name="Group 1433" transform="translate(67.09 44.307)">
                <rect id="Rectangle_10356" data-name="Rectangle 10356" width="14" height="2.289" fill="#fff"/>
              </g>
              <g id="Group_1434" data-name="Group 1434" transform="translate(35.423 52.977)">
                <rect id="Rectangle_10357" data-name="Rectangle 10357" width="39.035" height="2.289" fill="#fff"/>
              </g>
              <g id="Group_1435" data-name="Group 1435" transform="translate(24.691 52.977)">
                <rect id="Rectangle_10358" data-name="Rectangle 10358" width="8.173" height="2.289" transform="translate(8.173 2.289) rotate(180)" fill="#fff"/>
              </g>
              <g id="Group_1436" data-name="Group 1436" transform="translate(11.853 59.344)">
                <rect id="Rectangle_10359" data-name="Rectangle 10359" width="26.628" height="2.289" fill="#fff"/>
              </g>
              <g id="Group_1437" data-name="Group 1437" transform="translate(40.548 59.344)">
                <rect id="Rectangle_10360" data-name="Rectangle 10360" width="9.151" height="2.289" fill="#fff"/>
              </g>
              <g id="Group_1438" data-name="Group 1438" transform="translate(52.248 59.344)">
                <rect id="Rectangle_10361" data-name="Rectangle 10361" width="43.685" height="2.289" fill="#fff"/>
              </g>
              <g id="Group_1439" data-name="Group 1439" transform="translate(99.326 59.344)">
                <rect id="Rectangle_10362" data-name="Rectangle 10362" width="39.448" height="2.289" transform="translate(39.448 2.289) rotate(180)" fill="#fff"/>
              </g>
              <g id="Group_1440" data-name="Group 1440" transform="translate(20.593 68.014)">
                <rect id="Rectangle_10363" data-name="Rectangle 10363" width="13.817" height="2.289" fill="#fff"/>
              </g>
              <g id="Group_1441" data-name="Group 1441" transform="translate(38.481 68.014)">
                <rect id="Rectangle_10364" data-name="Rectangle 10364" width="32.799" height="2.289" transform="translate(32.799 2.289) rotate(180)" fill="#fff"/>
              </g>
              <g id="Group_1442" data-name="Group 1442" transform="translate(28.028 76.685)">
                <rect id="Rectangle_10365" data-name="Rectangle 10365" width="26.628" height="2.288" fill="#fff"/>
              </g>
              <g id="Group_1443" data-name="Group 1443" transform="translate(60.251 76.685)">
                <rect id="Rectangle_10366" data-name="Rectangle 10366" width="26.628" height="2.288" fill="#fff"/>
              </g>
              <g id="Group_1444" data-name="Group 1444" transform="translate(91.014 76.685)">
                <rect id="Rectangle_10367" data-name="Rectangle 10367" width="25.079" height="2.288" fill="#fff"/>
              </g>
              <g id="Group_1445" data-name="Group 1445" transform="translate(133.239 26.967)">
                <rect id="Rectangle_10368" data-name="Rectangle 10368" width="7.524" height="2.288" transform="translate(7.524 2.288) rotate(180)" fill="#fff"/>
              </g>
              <g id="Group_1446" data-name="Group 1446" transform="translate(67.543 26.967)">
                <rect id="Rectangle_10369" data-name="Rectangle 10369" width="62.356" height="2.288" fill="#fff"/>
              </g>
              <g id="Group_1447" data-name="Group 1447" transform="translate(34.409 3.41)">
                <rect id="Rectangle_10370" data-name="Rectangle 10370" width="70.876" height="2.289" fill="#fff"/>
              </g>
              <g id="Group_1448" data-name="Group 1448" transform="translate(0)">
                <rect id="Rectangle_10371" data-name="Rectangle 10371" width="3.683" height="3.683" fill="#fff"/>
              </g>
              <g id="Group_1449" data-name="Group 1449" transform="translate(0 9.699)">
                <rect id="Rectangle_10372" data-name="Rectangle 10372" width="3.683" height="3.684" fill="#fff"/>
              </g>
              <g id="Group_1450" data-name="Group 1450" transform="translate(0 19.399)">
                <rect id="Rectangle_10373" data-name="Rectangle 10373" width="3.683" height="3.684" fill="#fff"/>
              </g>
              <g id="Group_1451" data-name="Group 1451" transform="translate(0 29.098)">
                <rect id="Rectangle_10374" data-name="Rectangle 10374" width="3.683" height="3.684" fill="#fff"/>
              </g>
              <g id="Group_1452" data-name="Group 1452" transform="translate(0 38.798)">
                <rect id="Rectangle_10375" data-name="Rectangle 10375" width="3.683" height="3.684" fill="#fff"/>
              </g>
              <g id="Group_1453" data-name="Group 1453" transform="translate(0 48.498)">
                <rect id="Rectangle_10376" data-name="Rectangle 10376" width="3.683" height="3.683" fill="#fff"/>
              </g>
              <g id="Group_1454" data-name="Group 1454" transform="translate(0 58.197)">
                <rect id="Rectangle_10377" data-name="Rectangle 10377" width="3.683" height="3.683" fill="#fff"/>
              </g>
              <g id="Group_1455" data-name="Group 1455" transform="translate(0 67.897)">
                <rect id="Rectangle_10378" data-name="Rectangle 10378" width="3.683" height="3.683" fill="#fff"/>
              </g>
              <g id="Group_1456" data-name="Group 1456" transform="translate(0 77.596)">
                <rect id="Rectangle_10379" data-name="Rectangle 10379" width="3.683" height="3.683" fill="#fff"/>
              </g>
              <g id="Group_1457" data-name="Group 1457" transform="translate(0 87.295)">
                <rect id="Rectangle_10380" data-name="Rectangle 10380" width="3.683" height="3.683" fill="#fff"/>
              </g>
            </g>
            <g id="Group_1459" data-name="Group 1459" transform="translate(15.55 25.003)" opacity="0.3">
              <path id="Path_909" data-name="Path 909" d="M305.889,115.869a1.6,1.6,0,0,0-1.595,1.595v42.02h69.827a7.377,7.377,0,0,0,7.375-7.378V115.869Z" transform="translate(-304.294 -115.869)" fill="#0565a2"/>
            </g>
            <g id="Group_1460" data-name="Group 1460" transform="translate(1.916 1.918)">
              <rect id="Rectangle_10381" data-name="Rectangle 10381" width="87.649" height="63.511" rx="4.628" fill="#fff"/>
            </g>
            <g id="Group_1461" data-name="Group 1461" transform="translate(1.917 1.919)">
              <path id="Path_910" data-name="Path 910" d="M298.959,120.375v-9.146a4.39,4.39,0,0,1,4.39-4.393h78.866a4.392,4.392,0,0,1,4.393,4.393v9.146Z" transform="translate(-298.959 -106.836)" fill="#f5f5f5"/>
            </g>
            <g id="Group_1462" data-name="Group 1462">
              <path id="Path_911" data-name="Path 911" d="M383.382,173.433H304.518a6.316,6.316,0,0,1-6.31-6.31V112.4a6.317,6.317,0,0,1,6.31-6.312h11.635v3.833H304.518a2.481,2.481,0,0,0-2.476,2.479v54.726a2.48,2.48,0,0,0,2.476,2.476h78.863a2.48,2.48,0,0,0,2.476-2.476V112.4a2.481,2.481,0,0,0-2.476-2.479h-52v-3.833h52a6.319,6.319,0,0,1,6.31,6.312v54.726A6.318,6.318,0,0,1,383.382,173.433Z" transform="translate(-298.209 -106.085)" fill="#283e51"/>
            </g>
            <g id="Group_1463" data-name="Group 1463" transform="translate(21.282 0.001)">
              <rect id="Rectangle_10382" data-name="Rectangle 10382" width="6.935" height="3.833" fill="#283e51"/>
            </g>
            <g id="Group_1464" data-name="Group 1464" transform="translate(1.917 13.78)">
              <rect id="Rectangle_10383" data-name="Rectangle 10383" width="87.648" height="3.833" fill="#283e51"/>
            </g>
            <g id="Group_1465" data-name="Group 1465" transform="translate(8.991 7.517)">
              <rect id="Rectangle_10384" data-name="Rectangle 10384" width="1.515" height="3.833" fill="#283e51"/>
            </g>
            <g id="Group_1466" data-name="Group 1466" transform="translate(14.619 7.517)">
              <rect id="Rectangle_10385" data-name="Rectangle 10385" width="1.515" height="3.833" fill="#283e51"/>
            </g>
            <g id="Group_1467" data-name="Group 1467" transform="translate(20.247 7.517)">
              <rect id="Rectangle_10386" data-name="Rectangle 10386" width="1.515" height="3.833" fill="#283e51"/>
            </g>
            <g id="Group_1468" data-name="Group 1468" transform="translate(28.928 28.882)">
              <path id="Path_912" data-name="Path 912" d="M309.529,125.339v-2.655l9.422-4.439v2.849l-6.225,2.867,6.225,2.949v2.867Z" transform="translate(-309.529 -116.052)" fill="#283e51"/>
              <path id="Path_913" data-name="Path 913" d="M322.106,117.387h2.752l-8.142,17.779h-2.734Z" transform="translate(-302.602 -117.387)" fill="#283e51"/>
              <path id="Path_914" data-name="Path 914" d="M328.418,122.684v2.655L319,129.778v-2.867l6.223-2.949L319,121.094v-2.849Z" transform="translate(-294.803 -116.052)" fill="#283e51"/>
            </g>
          </g>
          <g id="Group_1476" data-name="Group 1476" transform="translate(321.9 90.712)">
            <g id="Group_1470" data-name="Group 1470" transform="translate(1.917 2.478)">
              <path id="Path_915" data-name="Path 915" d="M425.919,237.6h7.319a1,1,0,0,0,1-1V131.175a.983.983,0,0,0-.092-.419l-3.66-7.93a1,1,0,0,0-1.812,0l-3.662,7.93a1.02,1.02,0,0,0-.089.419v105.43A1,1,0,0,0,425.919,237.6Z" transform="translate(-424.922 -122.247)" fill="#fff"/>
            </g>
            <g id="Group_1471" data-name="Group 1471" transform="translate(1.916 14.769)">
              <rect id="Rectangle_10387" data-name="Rectangle 10387" width="9.316" height="92.973" fill="#17ac9d"/>
            </g>
            <g id="Group_1472" data-name="Group 1472" transform="translate(1.827 14.768)">
              <rect id="Rectangle_10388" data-name="Rectangle 10388" width="4.717" height="92.974" fill="#f5f5f5"/>
            </g>
            <g id="Group_1473" data-name="Group 1473">
              <path id="Path_916" data-name="Path 916" d="M437.32,241.029H424.172V132.042l4.293-9.3a2.511,2.511,0,0,1,4.562,0l4.293,9.3Zm-9.315-3.833h5.481V132.885l-2.742-5.939-2.739,5.936Z" transform="translate(-424.172 -121.278)" fill="#283e51"/>
            </g>
            <g id="Group_1474" data-name="Group 1474" transform="translate(1.916 12.852)">
              <rect id="Rectangle_10389" data-name="Rectangle 10389" width="9.636" height="3.833" fill="#283e51"/>
            </g>
            <g id="Group_1475" data-name="Group 1475" transform="translate(1.22 105.825)">
              <rect id="Rectangle_10390" data-name="Rectangle 10390" width="10.706" height="3.833" fill="#283e51"/>
            </g>
          </g>
          <g id="Group_1484" data-name="Group 1484" transform="translate(339.615 70.805)">
            <g id="Group_1477" data-name="Group 1477" transform="translate(1.917 2.3)">
              <path id="Path_917" data-name="Path 917" d="M431.854,140.411c0-4.712,5.231-8.134,6.782-10.876,3.115-5.512,3.108-15.147,3.108-15.147,8.456,1.549,9.892,19.016,9.892,26.023s-4.429,12.693-9.892,12.693S431.854,147.421,431.854,140.411Z" transform="translate(-431.854 -114.388)" fill="#17ac9d"/>
            </g>
            <g id="Group_1478" data-name="Group 1478" transform="translate(4.25 59.209)">
              <path id="Path_918" data-name="Path 918" d="M440.324,136.657h0c4.39,0,7.858,4.227,7.536,9.187l-3.675,56.909a31.147,31.147,0,0,1-3.634,12.785l-.21.388h0a31.029,31.029,0,0,1-4.145-13.807l-3.412-56.313C432.486,140.858,435.949,136.657,440.324,136.657Z" transform="translate(-432.767 -136.657)" fill="#fff"/>
            </g>
            <g id="Group_1479" data-name="Group 1479">
              <path id="Path_919" data-name="Path 919" d="M442.913,156.421c-6.512,0-11.809-6.555-11.809-14.61,0-3.943,2.742-6.91,4.942-9.292a16.7,16.7,0,0,0,2.085-2.527c2.832-5,2.865-14.111,2.865-14.2v-2.3l2.259.414c10.912,2,11.464,23.6,11.464,27.909C454.719,149.866,449.422,156.421,442.913,156.421Zm1.8-37.765c-.243,3.44-.984,9.23-3.243,13.222a18.821,18.821,0,0,1-2.6,3.24c-1.843,1.991-3.928,4.25-3.928,6.693,0,5.942,3.578,10.777,7.976,10.777s7.973-4.835,7.973-10.777C450.886,134.916,449.534,122.363,444.712,118.655Z" transform="translate(-431.104 -113.488)" fill="#283e51"/>
            </g>
            <g id="Group_1480" data-name="Group 1480" transform="translate(2.332 57.388)">
              <path id="Path_920" data-name="Path 920" d="M441.465,218.545a2.247,2.247,0,0,1-1.962-1.158,33.09,33.09,0,0,1-4.053-14.045l-3.412-56.313a11.089,11.089,0,0,1,2.893-8.264,9.042,9.042,0,0,1,13.135.015,11.075,11.075,0,0,1,2.875,8.3l-3.68,56.909c-.255,3.987-2.693,10.531-3.734,13.158a2.224,2.224,0,0,1-1.922,1.4C441.56,218.542,441.511,218.545,441.465,218.545Zm.028-78.863a5.178,5.178,0,0,0-3.772,1.712,7.239,7.239,0,0,0-1.855,5.4l3.412,56.313a29.676,29.676,0,0,0,2,9.08,38.349,38.349,0,0,0,2.159-8.454l3.68-56.906a7.252,7.252,0,0,0-1.848-5.428A5.178,5.178,0,0,0,441.493,139.682Z" transform="translate(-432.017 -135.945)" fill="#283e51"/>
            </g>
            <g id="Group_1481" data-name="Group 1481" transform="translate(4.223 37.632)">
              <rect id="Rectangle_10391" data-name="Rectangle 10391" width="15.203" height="30.544" transform="translate(15.203 30.544) rotate(180)" fill="#f5f5f5"/>
            </g>
            <g id="Group_1482" data-name="Group 1482" transform="translate(4.223 37.632)">
              <rect id="Rectangle_10392" data-name="Rectangle 10392" width="7.601" height="30.544" transform="translate(7.601 30.544) rotate(-179.998)" fill="#f5f5f5"/>
            </g>
            <g id="Group_1483" data-name="Group 1483" transform="translate(2.308 35.716)">
              <path id="Path_921" data-name="Path 921" d="M451.043,161.841H432.007V127.464h19.036Zm-15.2-3.833H447.21V131.3H435.84Z" transform="translate(-432.007 -127.464)" fill="#283e51"/>
            </g>
          </g>
          <g id="Group_1485" data-name="Group 1485" transform="translate(281.3 18.215)" opacity="0.3">
            <path id="Path_922" data-name="Path 922" d="M456.078,97.954a5.043,5.043,0,0,0-5.042-5.045H425.565a123.331,123.331,0,0,0-16.123,14.526l-1.158,1.283L409.443,110c.946,1.05,23.37,25.673,42.174,25.673a25.876,25.876,0,0,0,5.865-.774v-2.66h-1.4Z" transform="translate(-408.285 -92.909)" fill="#0565a2"/>
          </g>
          <g id="Group_1496" data-name="Group 1496" transform="translate(283.856)">
            <g id="Group_1486" data-name="Group 1486" transform="translate(2.581 6.429)">
              <path id="Path_923" data-name="Path 923" d="M491.8,113.336s-22.586,25.041-40.753,25.041-40.75-25.041-40.75-25.041S432.878,88.3,451.045,88.3,491.8,113.336,491.8,113.336Z" transform="translate(-410.295 -88.297)" fill="#fff"/>
            </g>
            <g id="Group_1487" data-name="Group 1487" transform="translate(0 4.512)">
              <path id="Path_924" data-name="Path 924" d="M452.616,141.461c-18.8,0-41.228-24.625-42.174-25.673l-1.158-1.285,1.158-1.283c.946-1.048,23.37-25.673,42.174-25.673s41.228,24.625,42.174,25.673l1.158,1.283-1.158,1.285C493.844,116.836,471.422,141.461,452.616,141.461ZM414.5,114.5c4.853,5.032,23.322,23.125,38.118,23.125,14.812,0,33.27-18.09,38.118-23.125-4.85-5.029-23.322-23.122-38.118-23.122C437.8,91.38,419.349,109.471,414.5,114.5Z" transform="translate(-409.285 -87.547)" fill="#283e51"/>
            </g>
            <g id="Group_1490" data-name="Group 1490" transform="translate(25.264 13.403)">
              <g id="Group_1488" data-name="Group 1488" transform="translate(18.119 0.008)">
                <path id="Path_925" data-name="Path 925" d="M444.275,109.086A18.054,18.054,0,0,0,426.31,91.029l-.049,36.12A18.06,18.06,0,0,0,444.275,109.086Z" transform="translate(-426.261 -91.029)" fill="#f5f5f5"/>
              </g>
              <g id="Group_1489" data-name="Group 1489">
                <path id="Path_926" data-name="Path 926" d="M437.238,91.026a18.066,18.066,0,1,0,0,36.132l.051-.005.049-36.12C437.3,91.034,437.274,91.026,437.238,91.026Z" transform="translate(-419.171 -91.026)" fill="#f5f5f5"/>
              </g>
            </g>
            <g id="Group_1491" data-name="Group 1491" transform="translate(34.471 22.61)">
              <path id="Path_927" data-name="Path 927" d="M440.5,103.486a8.861,8.861,0,1,1-8.86-8.857A8.861,8.861,0,0,1,440.5,103.486Z" transform="translate(-422.774 -94.629)" fill="#fff"/>
            </g>
            <g id="Group_1492" data-name="Group 1492" transform="translate(22.486 10.628)">
              <path id="Path_928" data-name="Path 928" d="M438.934,131.623a20.841,20.841,0,1,1,20.84-20.845A20.873,20.873,0,0,1,438.934,131.623Zm0-37.85a17.008,17.008,0,1,0,17.007,17A17.03,17.03,0,0,0,438.934,93.773Z" transform="translate(-418.084 -89.94)" fill="#283e51"/>
            </g>
            <g id="Group_1493" data-name="Group 1493" transform="translate(37.719 25.858)">
              <path id="Path_929" data-name="Path 929" d="M435.271,101.509a5.613,5.613,0,1,1-5.614-5.609A5.613,5.613,0,0,1,435.271,101.509Z" transform="translate(-424.045 -95.9)" fill="#17ac9d"/>
            </g>
            <g id="Group_1494" data-name="Group 1494" transform="translate(6.901)">
              <path id="Path_930" data-name="Path 930" d="M415.819,94.854h-3.833V85.781h8.5v3.833h-4.672Z" transform="translate(-411.985 -85.781)" fill="#283e51"/>
            </g>
            <g id="Group_1495" data-name="Group 1495" transform="translate(71.53 57.801)">
              <path id="Path_931" data-name="Path 931" d="M445.783,117.472h-8.508v-3.833h4.674V108.4h3.833Z" transform="translate(-437.275 -108.399)" fill="#283e51"/>
            </g>
          </g>
          <g id="Group_1509" data-name="Group 1509" transform="translate(260.195 178.333)">
            <g id="Group_1497" data-name="Group 1497" transform="translate(1.919 1.917)">
              <rect id="Rectangle_10393" data-name="Rectangle 10393" width="28.525" height="129.734" rx="1.405" transform="translate(129.734 0) rotate(90)" fill="#f5f5f5"/>
            </g>
            <g id="Group_1498" data-name="Group 1498" transform="translate(1.919 1.917)">
              <path id="Path_932" data-name="Path 932" d="M400.777,159.905v9.187H530.51v-9.187a3.59,3.59,0,0,0-3.59-3.59H404.367A3.59,3.59,0,0,0,400.777,159.905Z" transform="translate(-400.777 -156.315)" fill="#f5f5f5"/>
            </g>
            <g id="Group_1499" data-name="Group 1499">
              <path id="Path_933" data-name="Path 933" d="M528.09,187.923H405.536a5.513,5.513,0,0,1-5.51-5.5V161.072a5.515,5.515,0,0,1,5.51-5.507H528.09a5.514,5.514,0,0,1,5.5,5.507v21.346A5.512,5.512,0,0,1,528.09,187.923ZM405.536,159.4a1.677,1.677,0,0,0-1.676,1.674v21.346a1.675,1.675,0,0,0,1.676,1.671H528.09a1.674,1.674,0,0,0,1.671-1.671V161.072a1.676,1.676,0,0,0-1.671-1.674Z" transform="translate(-400.026 -155.565)" fill="#283e51"/>
            </g>
            <g id="Group_1500" data-name="Group 1500" transform="translate(14.593 1.918)">
              <rect id="Rectangle_10394" data-name="Rectangle 10394" width="3.833" height="17.438" fill="#283e51"/>
            </g>
            <g id="Group_1501" data-name="Group 1501" transform="translate(26.861 1.918)">
              <rect id="Rectangle_10395" data-name="Rectangle 10395" width="3.833" height="8.719" fill="#283e51"/>
            </g>
            <g id="Group_1502" data-name="Group 1502" transform="translate(39.127 1.918)">
              <rect id="Rectangle_10396" data-name="Rectangle 10396" width="3.833" height="8.719" fill="#283e51"/>
            </g>
            <g id="Group_1503" data-name="Group 1503" transform="translate(51.396 1.918)">
              <rect id="Rectangle_10397" data-name="Rectangle 10397" width="3.833" height="8.719" fill="#283e51"/>
            </g>
            <g id="Group_1504" data-name="Group 1504" transform="translate(63.662 1.918)">
              <rect id="Rectangle_10398" data-name="Rectangle 10398" width="3.833" height="17.438" fill="#283e51"/>
            </g>
            <g id="Group_1505" data-name="Group 1505" transform="translate(75.93 1.918)">
              <rect id="Rectangle_10399" data-name="Rectangle 10399" width="3.833" height="8.719" fill="#283e51"/>
            </g>
            <g id="Group_1506" data-name="Group 1506" transform="translate(88.196 1.918)">
              <rect id="Rectangle_10400" data-name="Rectangle 10400" width="3.833" height="8.719" fill="#283e51"/>
            </g>
            <g id="Group_1507" data-name="Group 1507" transform="translate(100.462 1.918)">
              <rect id="Rectangle_10401" data-name="Rectangle 10401" width="3.833" height="8.719" fill="#283e51"/>
            </g>
            <g id="Group_1508" data-name="Group 1508" transform="translate(112.731 1.918)">
              <rect id="Rectangle_10402" data-name="Rectangle 10402" width="3.833" height="17.438" fill="#283e51"/>
            </g>
          </g>
        </g>
        <g id="Group_1514" data-name="Group 1514" transform="translate(53.617 237.601)">
          <g id="Group_1511" data-name="Group 1511">
            <rect id="Rectangle_10403" data-name="Rectangle 10403" width="7" height="3.833" fill="#283e51"/>
          </g>
          <g id="Group_1512" data-name="Group 1512" transform="translate(434.302)">
            <rect id="Rectangle_10404" data-name="Rectangle 10404" width="15.458" height="3.833" fill="#283e51"/>
          </g>
          <g id="Group_1513" data-name="Group 1513" transform="translate(11.66)">
            <rect id="Rectangle_10405" data-name="Rectangle 10405" width="418.65" height="3.833" fill="#283e51"/>
          </g>
        </g>
      </g>
    </g>
  </g>
</svg>
