<svg xmlns="http://www.w3.org/2000/svg" width="246.001" height="40.196" viewBox="0 0 246.001 40.196">
  <g id="Group_1094" data-name="Group 1094" transform="translate(-686 -519)">
    <g id="_001-facebook" data-name="001-facebook" transform="translate(686 519)">
      <path id="Subtraction_1" data-name="Subtraction 1" d="M20.1,40.2A20.1,20.1,0,0,1,5.887,5.887,20.1,20.1,0,1,1,34.309,34.309,19.966,19.966,0,0,1,20.1,40.2ZM13.547,16.267v4.618h2.584V34.024h5.434V20.885h3.586l.475-4.613H21.565V13.555A1.11,1.11,0,0,1,22.718,12.3h2.92V7.814L21.613,7.8c-4.042,0-5.482,2.832-5.482,5.482v2.988Z" fill="#17ac9d"/>
    </g>
    <g id="Group_394" data-name="Group 394" transform="translate(737.704 519)">
      <g id="_002-instagram" data-name="002-instagram">
        <path id="Path_60" data-name="Path 60" d="M39.207,23.88H27.227a3.472,3.472,0,0,0-3.468,3.468v11.98A3.472,3.472,0,0,0,27.227,42.8h11.98a3.472,3.472,0,0,0,3.468-3.468V27.348A3.472,3.472,0,0,0,39.207,23.88Zm-5.99,15.686a6.227,6.227,0,1,1,6.227-6.227A6.234,6.234,0,0,1,33.217,39.566ZM39.645,28.4a1.473,1.473,0,1,1,1.473-1.473A1.475,1.475,0,0,1,39.645,28.4Z" transform="translate(-13.119 -13.186)" fill="#17ac9d"/>
        <path id="Path_61" data-name="Path 61" d="M40.445,36.971a3.6,3.6,0,1,0,3.6,3.6A3.6,3.6,0,0,0,40.445,36.971Z" transform="translate(-20.347 -20.414)" fill="#17ac9d"/>
        <path id="Path_62" data-name="Path 62" d="M20.1,0A20.1,20.1,0,1,0,40.2,20.1,20.1,20.1,0,0,0,20.1,0Zm12.09,26.142a6.106,6.106,0,0,1-6.1,6.1H14.108a6.106,6.106,0,0,1-6.1-6.1V14.162a6.106,6.106,0,0,1,6.1-6.1h11.98a6.106,6.106,0,0,1,6.1,6.1Z" fill="#17ac9d"/>
      </g>
    </g>
    <g id="Group_395" data-name="Group 395" transform="translate(789.409 519)">
      <g id="_003-linkedin" data-name="003-linkedin">
        <path id="Subtraction_2" data-name="Subtraction 2" d="M20.1,40.2A20.1,20.1,0,0,1,5.887,5.887,20.1,20.1,0,1,1,34.31,34.309,19.966,19.966,0,0,1,20.1,40.2ZM24.87,19c1.592,0,2.434,1.13,2.434,3.267V30h4.8V21.715c0-4.072-2.067-6.5-5.531-6.5a4.75,4.75,0,0,0-4.33,2.387V15.552h-4.8c.063,1.342,0,14.318,0,14.449h4.8V21.931a3.2,3.2,0,0,1,.158-1.171A2.679,2.679,0,0,1,24.87,19ZM9.984,15.552V30h4.8V15.552Zm2.433-6.964a2.5,2.5,0,1,0-.063,4.993h.032a2.5,2.5,0,1,0,.031-4.993Z" fill="#17ac9d"/>
      </g>
    </g>
    <g id="Group_396" data-name="Group 396" transform="translate(891.805 519)">
      <g id="_004-behance" data-name="004-behance">
        <path id="Subtraction_4" data-name="Subtraction 4" d="M20.1,40.2A20.1,20.1,0,0,1,5.886,5.887,20.1,20.1,0,1,1,34.309,34.309,19.966,19.966,0,0,1,20.1,40.2ZM27.3,16.6a5.253,5.253,0,0,0-5.083,2.9,7.168,7.168,0,0,0-.729,2.918,6.148,6.148,0,0,0,1.43,4.17,5.728,5.728,0,0,0,4.382,1.62s.078,0,.206,0c.83,0,4.973-.194,4.973-4.034H29.822a1.441,1.441,0,0,1-.4.97,2.708,2.708,0,0,1-2.031.658s-.035,0-.092,0a2.974,2.974,0,0,1-1.459-.381,2.414,2.414,0,0,1-1.108-2.252H32.57c0-.029.4-3.078-1.3-5.015A5.016,5.016,0,0,0,27.3,16.6Zm-19.1-3.853V27.888h7.926c.487,0,4.76-.125,4.76-4.472a4.613,4.613,0,0,0-.933-3,2.507,2.507,0,0,0-1.9-.755,2.619,2.619,0,0,0,2.306-2.88c0-2.486-1.64-4.03-4.28-4.03Zm15.839.892v1.864h6.248V13.641ZM15.863,25.2H11.678V21.147h4.405a1.6,1.6,0,0,1,1.048.457,2.21,2.21,0,0,1,.543,1.628C17.674,24.509,17.065,25.171,15.863,25.2Zm13.805-4.053H24.7a2.69,2.69,0,0,1,2.66-2.327,2.21,2.21,0,0,1,1.643.608,2.655,2.655,0,0,1,.662,1.719ZM15.81,18.82H11.678V15.439h4.405c.011,0,1.068.018,1.068,1.576C17.151,18.6,16.507,18.82,15.81,18.82Z" fill="#17ac9d"/>
      </g>
    </g>
    <g id="twitter" transform="translate(840.1 519)">
      <path id="Subtraction_3" data-name="Subtraction 3" d="M20.1,40.2A20.1,20.1,0,0,1,5.886,5.887,20.1,20.1,0,1,1,34.309,34.309,19.966,19.966,0,0,1,20.1,40.2ZM8.994,29.062h0A13.663,13.663,0,0,0,30.025,17.551c0-.213,0-.422-.014-.621a9.679,9.679,0,0,0,2.4-2.486,9.593,9.593,0,0,1-2.759.755,4.81,4.81,0,0,0,2.113-2.657,9.642,9.642,0,0,1-3.051,1.165,4.808,4.808,0,0,0-8.186,4.382,13.686,13.686,0,0,1-9.9-5.02,4.81,4.81,0,0,0,1.486,6.414,4.8,4.8,0,0,1-2.175-.6c0,.021,0,.041,0,.061a4.815,4.815,0,0,0,3.854,4.71,4.77,4.77,0,0,1-1.265.169,4.849,4.849,0,0,1-.9-.085A4.8,4.8,0,0,0,16.1,27.073a9.693,9.693,0,0,1-7.111,1.989Z" fill="#17ac9d"/>
    </g>
  </g>
</svg>
